<?xml version="1.0" encoding="UTF-8"?>
<svg xmlns="http://www.w3.org/2000/svg" xmlns:xlink="http://www.w3.org/1999/xlink" width="224px" height="130px" viewBox="0 0 224 130" version="1.1">
<g id="surface1">
<path style=" stroke:none;fill-rule:nonzero;fill:rgb(97.647059%,64.313725%,0%);fill-opacity:1;" d="M 46.625 65.976562 L 41.5 65.976562 C 41.5 50.398438 35.238281 37.722656 27.542969 37.722656 L 27.542969 27.34375 C 38.066406 27.347656 46.625 44.675781 46.625 65.976562 Z M 46.625 65.976562 "/>
<path style=" stroke:none;fill-rule:nonzero;fill:rgb(97.647059%,64.313725%,0%);fill-opacity:1;" d="M 46.625 65.976562 L 41.5 65.976562 C 41.5 50.398438 35.238281 37.722656 27.542969 37.722656 L 27.542969 27.34375 C 38.066406 27.347656 46.625 44.675781 46.625 65.976562 Z M 46.625 65.976562 "/>
<path style=" stroke:none;fill-rule:nonzero;fill:rgb(0%,49.411765%,89.803922%);fill-opacity:1;" d="M 27.542969 104.609375 C 17.023438 104.609375 8.460938 87.28125 8.460938 65.976562 L 13.585938 65.976562 C 13.585938 81.558594 19.847656 94.230469 27.542969 94.230469 Z M 27.542969 104.609375 "/>
<path style=" stroke:none;fill-rule:nonzero;fill:rgb(0%,54.901961%,26.666667%);fill-opacity:1;" d="M 27.542969 104.609375 L 27.542969 94.230469 C 35.238281 94.230469 41.5 81.558594 41.5 65.976562 L 46.625 65.976562 C 46.625 87.28125 38.066406 104.609375 27.542969 104.609375 Z M 27.542969 104.609375 "/>
<path style=" stroke:none;fill-rule:nonzero;fill:rgb(94.509804%,20.784314%,17.254902%);fill-opacity:1;" d="M 13.585938 65.976562 L 8.460938 65.976562 C 8.460938 44.675781 17.023438 27.347656 27.542969 27.347656 L 27.542969 37.722656 C 19.847656 37.722656 13.585938 50.398438 13.585938 65.976562 Z M 13.585938 65.976562 "/>
<path style=" stroke:none;fill-rule:nonzero;fill:rgb(0%,49.411765%,89.803922%);fill-opacity:1;" d="M 69.222656 52.628906 C 67.539062 50.675781 65.582031 49.6875 63.410156 49.6875 C 61.550781 49.6875 59.773438 50.394531 58.132812 51.789062 C 57.085938 52.683594 56.113281 53.8125 55.226562 55.160156 L 55.226562 51.285156 L 49.984375 51.285156 L 49.984375 103.925781 L 55.226562 103.925781 L 55.226562 67.816406 C 56.167969 65.320312 57.296875 63.355469 58.582031 61.957031 C 59.929688 60.5 61.339844 59.757812 62.777344 59.757812 C 64.808594 59.757812 66.382812 60.984375 67.582031 63.511719 C 68.773438 66.019531 69.378906 69.613281 69.378906 74.191406 L 69.378906 103.925781 L 74.617188 103.925781 L 74.617188 73.875 C 74.617188 69.074219 74.144531 64.792969 73.207031 61.152344 C 72.257812 57.464844 70.917969 54.597656 69.222656 52.628906 Z M 69.222656 52.628906 "/>
<path style=" stroke:none;fill-rule:nonzero;fill:rgb(0%,49.411765%,89.803922%);fill-opacity:1;" d="M 95.460938 53.558594 C 93.542969 51.199219 91.339844 50.007812 88.917969 50.007812 C 86.355469 50.007812 84.015625 51.230469 81.964844 53.648438 C 79.910156 56.070312 78.289062 59.425781 77.148438 63.625 C 76.015625 67.800781 75.441406 72.507812 75.441406 77.609375 C 75.441406 82.707031 76.011719 87.429688 77.148438 91.640625 C 78.289062 95.878906 79.90625 99.253906 81.964844 101.675781 C 84.015625 104.09375 86.351562 105.316406 88.914062 105.316406 C 91.730469 105.316406 94.234375 103.960938 96.363281 101.277344 C 98.523438 98.554688 100.003906 94.867188 100.765625 90.308594 L 101.136719 88.09375 L 95.566406 88.09375 L 95.339844 89.039062 C 94.847656 91.082031 94.085938 92.65625 93 93.84375 C 91.898438 95.054688 90.5625 95.667969 89.023438 95.667969 C 86.65625 95.667969 84.792969 94.269531 83.328125 91.394531 C 82.046875 88.890625 81.238281 85.859375 80.871094 82.164062 L 100.511719 82.164062 L 101.414062 83.066406 L 101.542969 80.667969 C 101.582031 79.949219 101.601562 78.875 101.601562 77.390625 C 101.601562 72.234375 101.054688 67.519531 99.976562 63.382812 C 98.890625 59.214844 97.371094 55.910156 95.460938 53.558594 Z M 96.203125 73.15625 L 80.875 73.15625 C 81.242188 69.519531 82.042969 66.5 83.304688 63.96875 C 84.757812 61.066406 86.554688 59.652344 88.8125 59.652344 C 90.953125 59.652344 92.644531 61.007812 93.988281 63.789062 C 95.15625 66.207031 95.898438 69.351562 96.203125 73.15625 Z M 96.203125 73.15625 "/>
<path style=" stroke:none;fill-rule:nonzero;fill:rgb(0%,49.411765%,89.803922%);fill-opacity:1;" d="M 129.140625 61.207031 L 109.136719 61.207031 L 109.136719 28.027344 L 103.742188 28.027344 L 103.742188 103.929688 L 109.136719 103.929688 L 109.136719 71.496094 L 129.140625 71.496094 L 129.140625 103.929688 L 134.539062 103.929688 L 134.539062 28.027344 L 129.140625 28.027344 Z M 129.140625 61.207031 "/>
<path style=" stroke:none;fill-rule:nonzero;fill:rgb(0%,49.411765%,89.803922%);fill-opacity:1;" d="M 158.546875 54.9375 C 156.300781 51.664062 153.628906 50.007812 150.574219 50.007812 C 148.152344 50.007812 145.882812 51.25 143.828125 53.707031 C 141.78125 56.15625 140.136719 59.539062 138.945312 63.761719 C 137.757812 67.980469 137.152344 72.640625 137.152344 77.609375 C 137.152344 82.648438 137.757812 87.34375 138.945312 91.5625 C 140.140625 95.785156 141.78125 99.167969 143.828125 101.617188 C 145.882812 104.074219 148.152344 105.316406 150.574219 105.316406 C 153.628906 105.316406 156.304688 103.660156 158.546875 100.382812 L 158.546875 103.929688 L 163.789062 103.929688 L 163.789062 51.285156 L 158.546875 51.285156 Z M 158.546875 87.734375 C 157.640625 90.21875 156.554688 92.144531 155.324219 93.464844 C 154.03125 94.859375 152.589844 95.5625 151.050781 95.5625 C 149.453125 95.5625 147.988281 94.75 146.683594 93.140625 C 145.375 91.527344 144.328125 89.328125 143.578125 86.605469 C 142.824219 83.886719 142.445312 80.859375 142.445312 77.609375 C 142.445312 74.429688 142.824219 71.4375 143.578125 68.71875 C 144.328125 66 145.371094 63.800781 146.683594 62.179688 C 147.988281 60.574219 149.457031 59.757812 151.050781 59.757812 C 152.589844 59.757812 154.027344 60.464844 155.324219 61.859375 C 156.554688 63.179688 157.640625 65.109375 158.546875 67.589844 Z M 158.546875 87.734375 "/>
<path style=" stroke:none;fill-rule:nonzero;fill:rgb(0%,49.411765%,89.803922%);fill-opacity:1;" d="M 180.699219 73.289062 L 175.839844 71.578125 C 171.746094 70.304688 171.746094 66.726562 171.746094 65.550781 C 171.746094 63.6875 172.164062 62.246094 173.066406 61.019531 C 174.046875 59.6875 175.414062 59.011719 177.136719 59.011719 C 179.03125 59.011719 180.554688 59.761719 181.660156 61.242188 C 182.710938 62.65625 183.328125 64.671875 183.539062 67.410156 L 183.648438 68.828125 L 188.574219 68.828125 L 188.5 67.015625 C 188.269531 61.226562 187.015625 56.828125 184.773438 53.945312 C 182.625 51.191406 180.058594 49.792969 177.136719 49.792969 C 174.050781 49.792969 171.511719 51.246094 169.582031 54.117188 C 167.574219 57.105469 166.558594 61.132812 166.558594 66.082031 C 166.558594 74.328125 169.222656 79.335938 174.464844 80.964844 L 180.027344 82.894531 C 181.15625 83.203125 182.046875 83.929688 182.675781 85.050781 C 183.25 86.078125 183.527344 87.378906 183.527344 89.023438 C 183.527344 91.09375 183.070312 92.667969 182.085938 93.964844 C 181.015625 95.378906 179.546875 96.09375 177.714844 96.09375 C 175.578125 96.09375 173.890625 95.261719 172.703125 93.613281 C 171.535156 91.996094 170.800781 89.714844 170.460938 86.628906 L 170.316406 85.320312 L 165.328125 85.320312 L 165.460938 87.226562 C 165.878906 93.226562 167.191406 97.84375 169.359375 100.953125 C 171.476562 103.988281 174.253906 105.527344 177.609375 105.527344 C 180.792969 105.527344 183.4375 104.039062 185.46875 101.109375 C 187.589844 98.054688 188.664062 93.84375 188.664062 88.597656 C 188.660156 80.222656 185.984375 75.074219 180.699219 73.289062 Z M 180.699219 73.289062 "/>
<path style=" stroke:none;fill-rule:nonzero;fill:rgb(0%,49.411765%,89.803922%);fill-opacity:1;" d="M 214.125 61.152344 C 213.179688 57.464844 211.835938 54.597656 210.140625 52.628906 C 208.457031 50.675781 206.5 49.6875 204.328125 49.6875 C 202.46875 49.6875 200.695312 50.394531 199.054688 51.789062 C 198.003906 52.683594 197.03125 53.8125 196.144531 55.160156 L 196.144531 24.828125 L 190.902344 24.828125 L 190.902344 103.929688 L 196.144531 103.929688 L 196.144531 67.816406 C 197.089844 65.324219 198.214844 63.355469 199.5 61.960938 C 200.847656 60.5 202.261719 59.757812 203.695312 59.757812 C 205.726562 59.757812 207.300781 60.988281 208.5 63.515625 C 209.691406 66.023438 210.296875 69.617188 210.296875 74.195312 L 210.296875 103.929688 L 215.539062 103.929688 L 215.539062 73.875 C 215.539062 69.074219 215.0625 64.792969 214.125 61.152344 Z M 214.125 61.152344 "/>
</g>
</svg>
