<?xml version="1.0" encoding="UTF-8"?>
<svg xmlns="http://www.w3.org/2000/svg" xmlns:xlink="http://www.w3.org/1999/xlink" width="224px" height="130px" viewBox="0 0 224 130" version="1.1">
<defs>
<clipPath id="clip1">
  <path d="M 0.0859375 59 L 62 59 L 62 130 L 0.0859375 130 Z M 0.0859375 59 "/>
</clipPath>
<clipPath id="clip2">
  <path d="M 172 46 L 221.539062 46 L 221.539062 130 L 172 130 Z M 172 46 "/>
</clipPath>
</defs>
<g id="surface1">
<path style=" stroke:none;fill-rule:nonzero;fill:rgb(100%,100%,100%);fill-opacity:1;" d="M 128.78125 43.195312 C 129.089844 43.179688 129.402344 43.175781 129.710938 43.175781 C 133.457031 43.175781 137.117188 44.140625 140.605469 46.042969 C 142.640625 47.15625 144.96875 45.78125 145.859375 42.800781 C 146.859375 39.457031 145.75 35.597656 143.507812 34.367188 C 139.089844 31.933594 134.449219 30.707031 129.710938 30.707031 C 117.269531 30.707031 106.132812 39.277344 98.742188 52.707031 L 98.742188 49.226562 C 98.742188 49.226562 98.714844 49.28125 98.699219 49.3125 L 98.699219 41.757812 C 98.699219 39.53125 98.175781 37.628906 97.128906 36.046875 C 96.082031 34.46875 94.820312 33.675781 93.351562 33.675781 C 91.882812 33.675781 90.636719 34.46875 89.628906 36.046875 C 88.621094 37.628906 88.117188 39.53125 88.117188 41.757812 L 88.117188 122.105469 C 88.117188 124.332031 88.621094 126.210938 89.628906 127.734375 C 90.636719 129.253906 91.878906 130.015625 93.351562 130.015625 C 94.824219 130.015625 96.082031 129.253906 97.128906 127.734375 C 98.175781 126.210938 98.699219 124.332031 98.699219 122.105469 L 98.699219 90.644531 C 98.699219 65.210938 111.953125 43.929688 128.78125 43.199219 Z M 128.78125 43.195312 "/>
<path style=" stroke:none;fill-rule:nonzero;fill:rgb(100%,100%,100%);fill-opacity:1;" d="M 15.449219 68.4375 C 17.5 69.640625 19.875 70.871094 22.59375 72.125 C 22.3125 70.746094 22.164062 69.28125 22.164062 67.78125 C 22.164062 63.503906 23.367188 59.636719 25.28125 56.917969 C 23.835938 56.292969 22.554688 55.679688 21.441406 55.089844 C 18.6875 53.621094 16.398438 51.578125 14.578125 48.9375 C 13.675781 47.628906 12.992188 46.121094 12.539062 44.417969 C 12.539062 44.410156 12.539062 44.402344 12.535156 44.398438 C 13.605469 45.9375 15.054688 46.890625 16.652344 46.890625 C 19.949219 46.890625 22.621094 42.855469 22.621094 37.871094 C 22.621094 32.890625 19.949219 28.851562 16.652344 28.851562 C 15.351562 28.851562 14.152344 29.488281 13.171875 30.554688 C 13.171875 30.554688 13.171875 30.550781 13.175781 30.542969 C 14.125 27.949219 15.605469 25.734375 17.601562 23.90625 C 21.441406 20.394531 26.421875 18.636719 32.542969 18.636719 C 38.980469 18.636719 45.21875 20.21875 51.269531 23.382812 C 52.039062 23.851562 52.664062 24.082031 53.125 24.082031 C 54.523438 24.082031 55.644531 23.320312 56.5 21.796875 C 57.351562 20.277344 57.777344 18.578125 57.777344 16.703125 C 57.777344 13.191406 56.695312 10.851562 54.523438 9.679688 C 47.621094 5.8125 39.910156 3.878906 31.382812 3.878906 C 25.023438 3.878906 19.578125 5.492188 15.046875 8.710938 C 10.511719 11.929688 7.082031 16.265625 4.753906 21.710938 C 2.429688 27.15625 1.269531 33.21875 1.269531 39.894531 C 1.269531 47.511719 2.664062 53.59375 5.449219 58.164062 C 8.242188 62.730469 11.574219 66.15625 15.449219 68.4375 Z M 15.449219 68.4375 "/>
<g clip-path="url(#clip1)" clip-rule="nonzero">
<path style=" stroke:none;fill-rule:nonzero;fill:rgb(100%,100%,100%);fill-opacity:1;" d="M 47.484375 66.417969 C 43.9375 64.320312 39.339844 62.226562 33.695312 60.121094 C 33.429688 60.023438 33.167969 59.921875 32.898438 59.828125 C 32.617188 59.761719 32.332031 59.722656 32.039062 59.722656 C 31.539062 59.722656 31.054688 59.828125 30.59375 60.023438 C 30.585938 60.027344 30.574219 60.027344 30.566406 60.035156 C 28.335938 61.003906 26.707031 64.109375 26.707031 67.78125 C 26.707031 71.457031 28.199219 74.300781 30.28125 75.394531 C 30.417969 75.449219 30.550781 75.5 30.683594 75.554688 C 30.824219 75.609375 30.960938 75.667969 31.097656 75.71875 C 35.628906 77.519531 39.132812 79.078125 41.613281 80.382812 C 44.175781 81.730469 46.324219 83.578125 48.066406 85.914062 C 48.769531 86.859375 49.332031 87.894531 49.75 89.023438 C 48.488281 87.125 46.753906 85.945312 44.832031 85.945312 C 40.988281 85.945312 37.871094 90.65625 37.871094 96.464844 C 37.871094 102.269531 40.988281 106.988281 44.832031 106.988281 C 46.3125 106.988281 47.6875 106.289062 48.816406 105.089844 C 45.949219 111.632812 39.789062 114.902344 30.335938 114.902344 C 22.195312 114.902344 14.558594 112.507812 7.425781 107.703125 C 6.730469 107.234375 5.996094 107 5.21875 107 C 3.824219 107 2.679688 107.730469 1.789062 109.195312 C 0.894531 110.660156 0.449219 112.386719 0.449219 114.378906 C 0.449219 115.902344 0.757812 117.335938 1.382812 118.683594 C 2.003906 120.03125 2.777344 120.996094 3.707031 121.582031 C 12.3125 127.203125 21.535156 130.011719 31.382812 130.011719 C 37.269531 130.011719 42.464844 128.542969 46.964844 125.617188 C 51.457031 122.691406 54.945312 118.621094 57.429688 113.410156 C 59.910156 108.203125 61.148438 102.316406 61.148438 95.753906 C 61.148438 87.792969 59.8125 81.46875 57.140625 76.785156 C 54.464844 72.097656 51.246094 68.644531 47.484375 66.417969 Z M 47.484375 66.417969 "/>
</g>
<path style=" stroke:none;fill-rule:nonzero;fill:rgb(100%,100%,100%);fill-opacity:1;" d="M 73.292969 58.621094 C 71.820312 58.621094 70.582031 59.410156 69.574219 60.988281 C 68.566406 62.566406 68.0625 64.476562 68.0625 66.699219 L 68.0625 122.101562 C 68.0625 124.328125 68.566406 126.199219 69.574219 127.722656 C 70.582031 129.242188 71.820312 130.003906 73.292969 130.003906 C 74.769531 130.003906 76.027344 129.242188 77.074219 127.722656 C 78.117188 126.199219 78.640625 124.328125 78.640625 122.101562 L 78.640625 66.699219 C 78.640625 64.359375 78.136719 62.425781 77.128906 60.902344 C 76.125 59.378906 74.84375 58.621094 73.292969 58.621094 Z M 73.292969 58.621094 "/>
<path style=" stroke:none;fill-rule:nonzero;fill:rgb(100%,100%,100%);fill-opacity:1;" d="M 130.429688 72.03125 C 132.34375 72.03125 133.960938 72.34375 135.222656 72.949219 C 136.523438 73.570312 138.117188 74.621094 139.949219 76.046875 C 140.703125 76.664062 141.472656 76.984375 142.242188 76.984375 C 143.339844 76.984375 144.316406 76.296875 145.136719 74.949219 C 145.9375 73.628906 146.347656 72.144531 146.347656 70.519531 C 146.347656 68.207031 145.621094 66.265625 144.238281 64.90625 C 142.300781 63.042969 140.167969 61.488281 137.902344 60.285156 C 135.609375 59.070312 132.867188 58.457031 129.738281 58.457031 C 125.488281 58.457031 121.5 59.910156 117.886719 62.765625 C 114.261719 65.644531 111.320312 69.828125 109.15625 75.210938 C 106.988281 80.59375 105.886719 86.996094 105.886719 94.230469 C 105.886719 101.464844 106.984375 107.867188 109.152344 113.25 C 111.320312 118.632812 114.257812 122.816406 117.882812 125.695312 C 121.488281 128.554688 125.480469 130.003906 129.734375 130.003906 C 132.859375 130.003906 135.605469 129.386719 137.898438 128.175781 C 140.160156 126.976562 142.292969 125.425781 144.238281 123.546875 C 145.617188 122.199219 146.339844 120.261719 146.339844 117.941406 C 146.339844 116.324219 145.933594 114.832031 145.132812 113.511719 C 144.308594 112.164062 143.335938 111.476562 142.238281 111.476562 C 141.46875 111.476562 140.699219 111.789062 139.960938 112.402344 C 138.121094 113.835938 136.527344 114.882812 135.21875 115.511719 C 133.957031 116.125 132.339844 116.429688 130.425781 116.429688 C 125.730469 116.429688 122.011719 114.382812 119.367188 110.347656 C 116.722656 106.3125 115.378906 100.886719 115.378906 94.222656 C 115.378906 87.5625 116.722656 82.136719 119.367188 78.101562 C 122.011719 74.0625 125.730469 72.019531 130.425781 72.019531 Z M 130.429688 72.03125 "/>
<path style=" stroke:none;fill-rule:nonzero;fill:rgb(100%,100%,100%);fill-opacity:1;" d="M 160.117188 0.0078125 C 158.644531 0.0078125 157.40625 0.800781 156.398438 2.378906 C 155.390625 3.957031 154.886719 5.867188 154.886719 8.085938 L 154.886719 122.101562 C 154.886719 124.328125 155.390625 126.199219 156.398438 127.71875 C 157.40625 129.242188 158.644531 130.003906 160.117188 130.003906 C 161.59375 130.003906 162.851562 129.242188 163.894531 127.71875 C 164.945312 126.199219 165.464844 124.328125 165.464844 122.101562 L 165.464844 8.09375 C 165.464844 5.753906 164.960938 3.820312 163.953125 2.300781 C 162.945312 0.777344 161.667969 0.015625 160.117188 0.015625 Z M 160.117188 0.0078125 "/>
<g clip-path="url(#clip2)" clip-rule="nonzero">
<path style=" stroke:none;fill-rule:nonzero;fill:rgb(100%,100%,100%);fill-opacity:1;" d="M 220.605469 91.378906 C 221.472656 90.019531 221.90625 88.34375 221.90625 86.351562 C 221.90625 79.234375 220.933594 72.667969 218.992188 66.648438 C 217.054688 60.628906 214.210938 55.8125 210.472656 52.203125 C 206.730469 48.589844 202.296875 46.78125 197.167969 46.78125 C 191.695312 46.78125 187.085938 48.71875 183.34375 52.585938 C 179.605469 56.460938 176.828125 61.539062 175.03125 67.820312 C 173.226562 74.101562 172.324219 80.957031 172.324219 88.390625 C 172.324219 101.585938 174.699219 111.816406 179.441406 119.085938 C 184.1875 126.367188 190.789062 130.003906 199.246094 130.003906 C 203.402344 130.003906 206.796875 129.429688 209.429688 128.277344 C 212.066406 127.121094 214.734375 125.402344 217.433594 123.09375 C 219.234375 121.519531 220.136719 119.585938 220.136719 117.277344 C 220.136719 115.5 219.71875 114.035156 218.890625 112.882812 C 218.058594 111.726562 217.085938 111.152344 215.980469 111.152344 C 215.285156 111.152344 214.664062 111.367188 214.109375 111.785156 C 212.027344 113.355469 209.898438 114.558594 207.71875 115.394531 C 205.535156 116.238281 202.988281 116.648438 200.078125 116.648438 C 194.605469 116.648438 190.34375 114.609375 187.296875 110.523438 C 184.246094 106.4375 182.445312 100.738281 181.890625 93.40625 L 217.128906 93.40625 C 218.582031 93.40625 219.742188 92.726562 220.609375 91.367188 Z M 181.886719 81.800781 C 182.09375 76.671875 182.960938 72.375 184.484375 68.925781 C 186.007812 65.46875 187.914062 62.929688 190.203125 61.308594 C 192.492188 59.6875 194.8125 58.875 197.167969 58.875 C 199.527344 58.875 201.847656 59.6875 204.132812 61.308594 C 206.421875 62.929688 208.339844 65.46875 209.902344 68.925781 C 211.460938 72.378906 212.347656 76.671875 212.550781 81.800781 Z M 181.886719 81.800781 "/>
</g>
<path style=" stroke:none;fill-rule:nonzero;fill:rgb(100%,100%,100%);fill-opacity:1;" d="M 77.339844 49.5 C 79.570312 46.132812 79.570312 40.675781 77.339844 37.308594 C 75.113281 33.941406 71.5 33.941406 69.273438 37.308594 C 67.042969 40.675781 67.042969 46.132812 69.273438 49.5 C 71.5 52.867188 75.113281 52.867188 77.339844 49.5 Z M 77.339844 49.5 "/>
</g>
</svg>
