<svg width="316" height="357" viewBox="0 0 316 357" fill="none" xmlns="http://www.w3.org/2000/svg">
<path d="M48.6484 202.68C36.5043 196.703 25.7937 191.049 14.7542 186.124C4.97716 181.765 0.269451 175.9 1.15708 164.157C2.77453 142.788 3.30711 121.248 2.66276 99.8268C2.3077 88.051 8.31727 82.6068 17.0423 77.8202C45.4135 62.2638 73.7781 46.7007 102.11 31.0719C120.421 20.9727 138.595 10.6302 157.024 0.761099C159.161 -0.382953 163.126 -0.205427 165.263 1.03725C189.834 15.3905 214.207 30.0659 238.627 44.6822C239.015 44.9123 239.225 45.4449 240.113 46.6284C188.538 76.3606 137.069 106.027 84.5545 136.305C97.9018 145.05 110.151 153.065 122.676 161.27C158.957 140.631 195.074 119.986 231.296 99.5244C246.3 91.0426 261.488 82.883 276.69 74.7563C278.439 73.8226 281.299 73.0797 282.791 73.8621C292.496 78.9643 302.128 84.2703 311.406 90.1089C313.615 91.4963 315.535 95.1059 315.647 97.7688C316.113 108.861 316.126 120.006 315.633 131.098C315.522 133.662 313.365 137.153 311.129 138.448C283.482 154.426 255.669 170.114 227.85 185.802C197.586 202.864 167.275 219.847 136.971 236.85C130.284 240.604 123.544 244.267 115.352 248.784C131.947 258.85 147.366 268.193 162.777 277.536C213.142 248.764 263.54 219.965 315.035 190.549C315.035 195.283 315.107 199.116 315.022 202.949C314.542 224.653 314.161 246.371 313.326 268.062C313.227 270.58 311.123 274.032 308.933 275.301C289.721 286.413 270.253 297.077 250.909 307.965C227.449 321.175 203.641 333.818 180.747 347.941C164.717 357.83 151.035 359.993 133.933 348.73C104.142 329.124 72.7524 311.956 41.9813 293.836C30.5868 287.129 19.1332 280.515 7.58086 274.091C2.68905 271.369 0.105076 267.772 0.361501 262.039C0.591627 256.996 0.644227 251.92 0.348351 246.89C-0.407775 233.878 6.06861 225.863 17.2396 220.235C27.5689 215.041 37.4577 208.985 48.6484 202.68Z" fill="#F9F9F9"/>
<path d="M84.5999 136.371L6.97534 181.351L8.81635 182.81C8.81635 182.81 13.215 185.315 17.7584 187.479C22.3017 189.642 48.6478 202.674 48.6478 202.674L122.682 161.271L84.5999 136.371Z" fill="url(#paint0_linear_67_31)"/>
<path d="M163.119 277.512L87.9736 320.309L52.6 299.834L39.851 292.372L38.5952 291.635L115.707 248.779L163.119 277.512Z" fill="url(#paint1_linear_67_31)"/>
<defs>
<linearGradient id="paint0_linear_67_31" x1="7.02375" y1="181.636" x2="101.647" y2="169.583" gradientUnits="userSpaceOnUse">
<stop stop-color="#1F3E91"/>
<stop offset="0.295833" stop-color="#546CAB"/>
<stop offset="1" stop-color="white"/>
</linearGradient>
<linearGradient id="paint1_linear_67_31" x1="38.5952" y1="291.716" x2="150.778" y2="277.193" gradientUnits="userSpaceOnUse">
<stop stop-color="#1A8589"/>
<stop offset="0.3375" stop-color="#54A4A7"/>
<stop offset="0.530208" stop-color="#74B5B8"/>
<stop offset="1" stop-color="white"/>
</linearGradient>
</defs>
</svg>
