<svg width="238" height="303" viewBox="0 0 238 303" fill="none" xmlns="http://www.w3.org/2000/svg">
<mask id="mask0_225_1639" style="mask-type:alpha" maskUnits="userSpaceOnUse" x="0" y="0" width="238" height="303">
<path d="M238 30.6077C237.947 29.6389 237.921 28.6415 237.842 27.7581C237.684 25.9058 237.474 24.0536 237.079 22.2298C236.342 18.5823 235.237 14.9348 233.396 11.5722C231.607 8.20962 229.081 5.13202 225.897 2.99479C222.74 0.82907 218.925 -0.196798 215.426 0.0311731C211.901 0.230647 208.77 1.59847 206.323 3.39374C203.876 5.18901 202.008 7.38323 200.666 9.57744C200.166 10.3753 199.772 11.1732 199.377 11.9426C199.377 11.4582 199.403 11.0023 199.403 10.5178V4.36261H193.747H119.026H44.306H38.6493V10.4893C38.6493 10.9738 38.6493 11.4297 38.6757 11.9141C38.281 11.1447 37.8864 10.3468 37.3865 9.54895C36.0447 7.35473 34.203 5.16051 31.7298 3.36524C29.283 1.59847 26.1521 0.230647 22.6266 0.0311731C19.101 -0.196798 15.3124 0.82907 12.1289 2.99479C8.9717 5.13202 6.44594 8.20962 4.63056 11.5722C2.81517 14.9348 1.68384 18.5538 0.947159 22.2298C0.578819 24.0536 0.36834 25.8773 0.21048 27.7296C0.13155 28.6415 0.0789299 29.6104 0.0526199 30.5792L0 31.8616V32.4885V33.3434C0 34.3123 0.02631 35.3096 0.13155 36.2785C0.920849 43.8585 3.92019 50.5267 7.78775 56.055C12.2341 62.3811 17.6014 67.425 23.1528 71.7849C28.7042 76.1734 34.5187 79.9064 40.2806 83.2689C46.0425 86.6315 51.8043 89.6521 57.382 92.4448C62.9598 95.2374 68.3533 97.8021 73.4048 100.281C78.4563 102.76 83.1395 105.154 87.2439 107.548C89.2697 108.745 91.1641 109.97 92.7163 111.252C94.2686 112.478 95.5052 113.846 95.9525 114.757C96.0051 114.871 96.0577 114.957 96.084 115.071L96.1366 115.213C96.1366 115.213 96.1366 115.185 96.1629 115.185C96.1893 115.242 96.1893 115.413 96.1893 115.527V115.584C96.1893 115.641 96.1893 115.327 96.1893 115.47V115.555V115.726L96.2156 116.382C96.2156 117.208 96.1893 118.006 96.084 118.633C95.9788 119.288 95.8472 119.801 95.6894 120.086C95.5315 120.4 95.4263 120.542 95.2421 120.685C94.9001 120.998 94.0055 121.055 93.1899 120.884C92.348 120.713 91.585 120.428 90.9799 120.172C89.7433 119.63 89.1382 119.203 89.1645 119.231C88.191 118.49 86.8755 118.747 86.2178 119.801C85.5337 120.856 85.7705 122.28 86.744 122.993C86.744 122.993 86.9281 123.135 87.3228 123.449C87.6911 123.734 88.2173 124.133 88.9803 124.589C89.7433 125.045 90.6905 125.586 92.006 126.042C92.6637 126.27 93.4267 126.441 94.3212 126.526C95.2158 126.583 96.2682 126.526 97.4258 126.042C98.2151 125.728 98.9781 125.159 99.6359 124.503V140.661C99.6359 146.018 94.6107 148.753 94.558 148.782L82.9817 154.795L94.558 159.867C95.1895 160.266 99.6359 163.401 99.6359 172.69V190.643C99.6359 195.687 90.8483 210.277 77.2724 210.277C75.2991 210.277 73.4311 211.132 72.0104 212.699C69.7214 215.207 68.8006 219.481 68.4585 223.271C63.7754 226.577 63.7754 234.242 63.7754 237.605V258.721C58.987 262.397 52.5936 271.858 52.5936 296.051C52.5936 299.442 55.1457 302.206 58.2766 302.178L119 301.978L179.697 302.178C182.828 302.178 185.38 299.442 185.38 296.051C185.38 271.829 178.987 262.397 174.198 258.721V237.605C174.198 234.242 174.198 226.605 169.515 223.271C169.173 219.481 168.252 215.207 165.963 212.699C164.543 211.132 162.675 210.277 160.701 210.277C147.125 210.277 138.338 195.687 138.338 190.643V172.69C138.338 163.429 142.784 160.266 143.416 159.867L155.255 154.681L143.416 148.811C143.258 148.725 138.338 145.989 138.338 140.689V124.532C138.996 125.216 139.759 125.757 140.548 126.07C141.679 126.555 142.758 126.612 143.652 126.555C144.547 126.498 145.31 126.298 145.968 126.07C147.283 125.614 148.23 125.073 148.993 124.617C149.73 124.161 150.283 123.762 150.651 123.477C151.019 123.164 151.23 123.021 151.23 123.021C152.203 122.28 152.44 120.856 151.756 119.83C151.072 118.775 149.756 118.519 148.809 119.26C148.836 119.231 148.23 119.659 146.994 120.2C146.389 120.457 145.599 120.742 144.784 120.913C143.968 121.055 143.074 120.998 142.732 120.713C142.547 120.571 142.442 120.428 142.284 120.115C142.126 119.83 141.969 119.288 141.89 118.661C141.784 118.034 141.758 117.237 141.758 116.41L141.784 115.755V115.584V115.498C141.784 115.356 141.784 115.641 141.784 115.612V115.555C141.784 115.441 141.811 115.27 141.811 115.213C141.837 115.213 141.837 115.242 141.837 115.242L141.89 115.099C141.942 115.014 141.969 114.9 142.021 114.786C142.468 113.874 143.705 112.506 145.257 111.281C146.81 110.027 148.704 108.802 150.73 107.576C154.834 105.183 159.517 102.789 164.569 100.31C169.62 97.8591 175.04 95.2944 180.592 92.4733C186.169 89.6806 191.931 86.66 197.693 83.2974C203.455 79.9064 209.27 76.2019 214.821 71.8134C220.372 67.4535 225.74 62.3811 230.186 56.0834C234.053 50.5552 237.053 43.887 237.842 36.2785C237.947 35.3096 237.974 34.3408 237.974 33.3434V32.4885V31.8616L238 30.6077ZM71.2737 96.0923C67.5377 94.183 62.1442 91.6184 55.7771 88.3128C52.5936 86.66 49.1207 84.8647 45.5426 82.813C41.9381 80.7898 38.1495 78.5956 34.3608 76.0879C26.7572 71.1295 18.8116 65.2308 12.2868 57.5083C9.05063 53.6613 6.23546 49.2443 4.39376 44.3715C3.49923 41.9208 2.84148 39.4131 2.52576 36.8199C2.18373 34.2553 2.28897 31.6621 2.44683 29.2969C2.78886 24.3385 3.84126 19.6366 5.73557 15.5332C7.55096 11.4297 10.2609 8.01014 13.3392 5.78743C14.8651 4.67607 16.47 3.82118 18.075 3.27975C19.6272 2.79532 21.2321 2.56735 22.7318 2.56735C25.7312 2.56735 28.2306 3.53622 30.0197 4.70457C31.8351 5.87292 32.9664 7.18375 33.6768 8.09563C34.3608 9.03601 34.7029 9.54895 34.7029 9.54895C34.7029 9.54895 34.3345 9.06451 33.5715 8.20962C32.8085 7.38323 31.5457 6.24337 29.7566 5.246C27.9675 4.27713 25.5207 3.56472 22.7581 3.76419C19.9956 3.96367 16.9436 5.10352 14.26 7.29774C11.5764 9.52045 9.20849 12.712 7.6562 16.559C6.0776 20.3776 5.18306 24.8515 4.94627 29.4394C4.84103 31.8046 4.81472 34.1413 5.15675 36.4495C5.47247 38.7577 6.0776 41.0374 6.89321 43.2601C8.57705 47.7055 11.2607 51.7805 14.3126 55.485C17.3909 59.1895 20.8901 62.4951 24.5209 65.5157C28.1517 68.5363 31.8877 71.3005 35.5974 73.8367C39.3071 76.3443 42.9642 78.7095 46.4897 80.8468C50.0153 82.984 53.3566 84.9787 56.4612 86.774C62.6703 90.4215 67.8534 93.4421 71.4842 95.5509C75.0887 97.7166 77.1145 99.0274 77.1145 99.0274C77.1145 99.0274 75.0097 97.9446 71.2737 96.0923ZM77.6407 91.2479C72.6945 88.2843 67.4851 85.2922 62.1705 82.1861C56.8295 79.08 51.4097 75.8314 46.0424 72.3549C40.6752 68.8783 35.4132 65.1738 30.5459 61.1273C25.7048 57.0523 21.2321 52.6639 18.0223 47.848C14.7336 43.0606 12.8919 37.9883 12.8393 33.0584C12.734 27.4161 13.5496 21.8879 15.365 18.0124C16.2596 16.0746 17.3909 14.5643 18.6012 13.5384C19.8114 12.5411 21.1006 11.9426 22.4687 11.8287C25.2313 11.4867 28.2043 13.1395 30.3617 15.5332C32.5454 17.9269 33.9662 20.862 34.9133 23.4267C35.8868 25.9913 36.3341 28.2425 36.6761 29.7528C36.9655 31.2916 37.1234 32.118 37.1234 32.118L37.1497 32.232C37.3339 33.1724 38.0179 33.9418 38.9388 34.0843C39.7807 34.2268 40.5437 33.7993 40.9909 33.1154C45.9635 54.5446 58.987 69.6477 81.0873 93.2997C79.956 92.6157 78.7984 91.9318 77.6407 91.2479ZM126.709 108.602L107.055 110.682L125.683 112.677C127.025 117.208 129.656 129.632 126.761 150.492L137.864 152.059L126.446 152.601L100.136 154.51L126.314 156.391C126.761 161.947 127.866 178.732 126.577 191.128L106.266 192.837L126.156 194.49C124.815 203.466 127.893 208.767 131.734 212.386L149.335 213.982L132.102 214.21L88.27 215.663L138.364 217.316C138.68 217.544 138.996 217.743 139.285 217.943C141.758 219.681 143.179 221.875 143.968 223.756L165.99 225.209L115.79 226.577L75.799 227.888L145.968 230.167C147.467 234.499 149.862 244.758 145.941 258.436L166.016 259.775L142.495 260.402L70.1424 262.539L146.415 264.791C148.493 270.832 151.756 283.855 146.599 295.994L119.026 295.909L64.1437 296.08C64.0385 295.31 63.9332 294.341 63.828 293.173C63.5912 290.38 63.4333 286.619 63.6175 282.857C63.6701 281.917 63.7491 280.976 63.828 280.065C63.9595 279.153 64.0385 278.241 64.17 277.357C64.3279 276.503 64.4594 275.648 64.6436 274.85C64.8278 274.052 65.0119 273.311 65.1961 272.627C65.4066 271.943 65.6171 271.345 65.8012 270.803C65.9591 270.233 66.1959 269.806 66.3537 269.435C66.6958 268.666 66.88 268.239 66.88 268.239C66.88 268.239 66.6432 268.638 66.1959 269.321C65.9854 269.692 65.696 270.091 65.4329 270.604C65.1698 271.117 64.8804 271.715 64.5647 272.342C64.3016 272.997 64.0122 273.738 63.6964 274.508C63.407 275.277 63.1439 276.132 62.8545 276.987C62.5914 277.842 62.3809 278.754 62.1178 279.694C61.9074 280.635 61.6969 281.575 61.5127 282.544C60.776 286.362 60.4077 290.266 60.2498 293.23C60.1972 294.341 60.1709 295.31 60.1446 296.108H58.3029C58.3029 264.677 69.4846 262.539 69.4846 262.539C69.4846 262.539 69.4846 244.872 69.4846 237.662C69.4846 230.452 70.5633 227.916 73.9836 227.916C73.9836 227.916 73.9047 216.489 77.325 216.489C94.0845 216.489 105.345 198.936 105.345 190.729C105.345 182.522 105.345 186.91 105.345 172.776C105.345 158.613 97.0575 154.424 97.0575 154.424C97.0575 154.424 105.345 150.121 105.345 140.775C105.345 131.399 105.345 110.711 105.345 110.711C61.539 63.2075 44.306 50.3272 44.306 10.4893H119.026H164.279C164.279 11.3442 164.279 12.5981 164.279 14.3078L48.9629 16.1886L164.279 18.0693C164.279 21.7454 164.279 26.5613 164.279 32.688C164.279 33.4289 164.227 34.1983 164.201 34.9677L65.3803 36.7629L163.832 38.5582C160.149 65.1168 133.707 99.8253 126.709 108.602ZM146.652 95.8928C144.652 97.8876 143.521 99.0274 143.521 99.0274C143.521 99.0274 144.6 97.8021 146.468 95.6933C148.362 93.5846 151.046 90.564 154.282 86.945C155.913 85.1497 157.649 83.1834 159.517 81.1032C161.359 79.023 163.306 76.8288 165.306 74.5491C167.305 72.2694 169.331 69.8757 171.357 67.425C172.357 66.1711 173.356 64.9173 174.356 63.6635C175.33 62.3811 176.277 61.0703 177.25 59.7595C178.25 58.4771 179.145 57.1093 180.039 55.77L181.407 53.7752L182.644 51.695C184.328 48.9594 185.748 46.1097 187.038 43.3456C187.616 41.9208 188.195 40.5245 188.774 39.1566C189.248 37.7318 189.695 36.364 190.142 35.0247C190.616 33.6853 190.853 32.3175 191.195 31.0067C191.352 30.3513 191.51 29.7243 191.668 29.0974C191.8 28.4705 191.879 27.8436 192.01 27.2167C192.221 25.9913 192.431 24.7945 192.615 23.6831C192.799 22.5718 192.878 21.4604 193.01 20.463C193.247 18.4398 193.431 16.673 193.457 15.1912C193.615 12.2561 193.72 10.5748 193.72 10.5748C193.72 10.5748 193.72 12.2561 193.747 15.1912C193.773 16.673 193.668 18.4398 193.536 20.4915C193.457 21.5174 193.431 22.6003 193.299 23.7686C193.142 24.9085 192.984 26.1053 192.799 27.3592C192.694 27.9861 192.642 28.6415 192.51 29.2684C192.379 29.9238 192.221 30.5792 192.089 31.2347C191.773 32.5455 191.563 33.9703 191.142 35.3381C190.721 36.7344 190.3 38.1593 189.853 39.6126C189.327 41.0374 188.721 42.4622 188.143 43.9155C186.853 46.7651 185.459 49.7003 183.749 52.4929C183.328 53.2053 182.933 53.9177 182.512 54.6016L181.144 56.6534C180.223 58.0212 179.355 59.4175 178.355 60.7283C177.356 62.0392 176.382 63.35 175.382 64.6323C174.356 65.8862 173.33 67.14 172.304 68.3939C170.252 70.8445 168.173 73.2097 166.147 75.4894C162.096 80.0204 158.149 84.0668 154.808 87.5719C151.493 91.0199 148.651 93.8696 146.652 95.8928ZM221.819 51.4955C221.372 52.3504 220.714 53.2623 219.978 54.3452C219.267 55.4565 218.346 56.5964 217.347 57.8502C216.347 59.1041 215.189 60.3864 213.926 61.7257C212.637 63.0081 211.295 64.4044 209.796 65.6867C208.322 67.026 206.77 68.3369 205.139 69.6192C203.481 70.8445 201.85 72.1554 200.14 73.3237C198.43 74.5206 196.693 75.6319 194.957 76.7433C193.247 77.8546 191.51 78.8235 189.826 79.8209C186.459 81.7301 183.275 83.3829 180.513 84.7223C177.75 86.0616 175.409 87.0874 173.751 87.7999C172.094 88.4838 171.146 88.8542 171.146 88.8542C171.146 88.8542 171.988 88.2558 173.488 87.2584C174.988 86.2611 177.145 84.8362 179.75 83.1835C182.328 81.5307 185.354 79.5644 188.59 77.4842C190.195 76.4298 191.852 75.347 193.536 74.2356C195.22 73.1242 196.904 71.9844 198.561 70.7876C200.272 69.6477 201.903 68.4224 203.534 67.2255C205.113 65.9717 206.744 64.8318 208.217 63.6065C209.717 62.4096 211.138 61.1843 212.479 60.0444C213.769 58.8476 215.031 57.7362 216.136 56.6534C217.215 55.542 218.268 54.5731 219.109 53.6043C219.951 52.6354 220.767 51.8945 221.319 51.1536C222.503 49.7288 223.188 48.9309 223.188 48.9309C223.188 48.9309 222.74 49.8428 221.819 51.4955ZM220.03 47.848C216.794 52.6639 212.321 57.0523 207.507 61.1273C202.639 65.1738 197.351 68.8783 192.01 72.3549C186.643 75.8314 181.197 79.0515 175.882 82.1861C170.541 85.2922 165.332 88.2843 160.412 91.2479C159.254 91.9318 158.097 92.6442 156.965 93.3281C176.961 71.9274 189.511 57.5368 195.404 39.1566V39.1281C196.036 37.1619 196.588 35.1671 197.062 33.1154C197.377 33.5998 197.825 33.9703 198.377 34.0843C199.535 34.3408 200.666 33.5144 200.903 32.2605L200.929 32.1465C200.929 32.1465 201.087 31.3201 201.377 29.7813C201.719 28.271 202.166 26.0198 203.139 23.4552C204.086 20.8905 205.507 17.9554 207.691 15.5617C209.822 13.168 212.821 11.5152 215.584 11.8571C216.952 11.9711 218.241 12.5696 219.451 13.5669C220.662 14.5928 221.767 16.1031 222.688 18.0409C224.503 21.9164 225.319 27.4446 225.24 33.1154C225.161 37.9883 223.319 43.0606 220.03 47.848ZM233.396 21.1754C233.106 20.5485 232.87 19.7221 232.422 18.8957C231.975 18.0693 231.501 17.1575 231.002 16.1601C230.396 15.2482 229.712 14.2508 229.002 13.1965C228.581 12.7405 228.186 12.2561 227.739 11.7432C227.529 11.4867 227.318 11.2587 227.108 11.0023L226.371 10.3468C225.871 9.9194 225.398 9.43496 224.871 9.03601C224.293 8.69406 223.74 8.3236 223.188 7.92466C222.661 7.49721 221.977 7.32623 221.398 7.01277L220.478 6.58533L219.504 6.32886C218.241 5.87292 216.899 5.78743 215.61 5.70194C214.952 5.75893 214.321 5.78743 213.663 5.81593C213.032 5.92991 212.427 6.10089 211.795 6.24337C211.164 6.32886 210.638 6.69931 210.059 6.89879C209.48 7.12676 208.927 7.32623 208.428 7.69669C207.928 8.01015 207.428 8.3236 206.954 8.63706C206.507 8.97902 206.112 9.37797 205.691 9.71992C204.849 10.3753 204.218 11.2017 203.639 11.8856C203.376 12.2561 203.087 12.5696 202.85 12.883C202.639 13.225 202.429 13.5384 202.271 13.7949C201.534 14.9063 201.087 15.5617 201.087 15.5617C201.087 15.5617 201.324 14.8208 201.771 13.4814C201.876 13.1395 202.008 12.769 202.166 12.3701C202.324 11.9711 202.56 11.6007 202.797 11.1732C203.271 10.3183 203.771 9.32098 204.586 8.43759C204.981 7.98165 205.349 7.46871 205.797 6.98428C206.296 6.55683 206.796 6.12939 207.349 5.70194C207.849 5.2175 208.48 4.90405 209.112 4.53359C209.743 4.19164 210.375 3.76419 211.111 3.59321C211.822 3.36524 212.532 3.10878 213.295 2.9378C214.058 2.82381 214.821 2.73832 215.61 2.68133C217.163 2.70983 218.767 2.79532 220.293 3.30825L221.451 3.65021L222.53 4.16314C223.24 4.53359 224.003 4.79006 224.608 5.30299C225.266 5.75893 225.897 6.21488 226.503 6.69931C227.081 7.21225 227.608 7.81067 228.134 8.3236L228.923 9.1215C229.134 9.43496 229.344 9.71992 229.555 10.0334C229.975 10.6318 230.37 11.2302 230.765 11.8002C231.449 13.0255 232.001 14.2223 232.501 15.3052C232.896 16.4736 233.238 17.5564 233.501 18.4683C233.79 19.4087 233.843 20.2351 233.975 20.919C234.185 22.2868 234.29 23.0847 234.29 23.0847C234.29 23.0847 233.896 22.4293 233.396 21.1754Z" fill="#3F3F3F"/>
<path d="M73.0628 236.58C72.7997 234.072 72.4577 232.391 72.4577 232.391C72.4577 232.391 72.0893 234.072 71.8525 236.58C71.721 237.833 71.5894 239.287 71.5368 240.854C71.4579 242.421 71.4316 244.103 71.4053 245.755C71.4316 247.437 71.4316 249.089 71.5368 250.657C71.6158 252.224 71.721 253.677 71.8525 254.931C72.1156 257.439 72.4577 259.12 72.4577 259.12C72.4577 259.12 72.826 257.439 73.0628 254.931C73.1944 253.677 73.3259 252.224 73.3785 250.657C73.4575 249.089 73.4838 247.408 73.5101 245.755C73.4838 244.074 73.4838 242.421 73.3785 240.854C73.3259 239.315 73.2207 237.833 73.0628 236.58Z" fill="#3F3F3F"/>
<path d="M92.322 90.6521C90.1645 88.1729 87.6651 85.2663 84.9815 82.1317C83.6134 80.5929 82.2715 78.9686 80.8508 77.3158C79.4301 75.6915 78.0093 74.0387 76.6149 72.3289C75.1942 70.6761 73.7734 68.9949 72.4053 67.3136C71.0372 65.6608 69.6691 64.0365 68.3799 62.4122C65.7752 59.2206 63.381 56.2 61.3814 53.6068C59.3819 50.9852 57.698 48.791 56.6193 47.1952C55.5143 45.6279 54.9092 44.6875 54.9092 44.6875C54.9092 44.6875 55.3564 45.7134 56.2773 47.4516C57.2245 49.1614 58.5926 51.6121 60.4343 54.4047C61.3288 55.8296 62.3549 57.3114 63.4336 58.8787C64.5649 60.4175 65.6963 62.0988 66.9591 63.723C69.4323 67.0571 72.2211 70.5052 75.0626 73.8677C77.9304 77.2303 80.8245 80.5359 83.666 83.4995C86.4548 86.5201 89.1648 89.2273 91.5063 91.5355C93.8216 93.8437 95.8738 95.6389 97.2682 96.9783C98.6627 98.2606 99.5046 99.0015 99.5046 99.0015C99.5046 99.0015 98.8205 98.1466 97.5576 96.6648C96.2421 95.24 94.4794 93.1598 92.322 90.6521Z" fill="#3F3F3F"/>
<path d="M124.446 183.831C124.499 185.142 124.525 186.253 124.551 187.023C124.578 187.792 124.604 188.248 124.604 188.248C124.604 188.248 124.683 187.821 124.814 187.051C124.92 186.282 125.104 185.199 125.235 183.86C125.525 181.21 125.683 177.676 125.63 174.142C125.577 170.609 125.314 167.075 124.999 164.454C124.683 161.832 124.341 160.094 124.341 160.094C124.341 160.094 124.315 160.55 124.288 161.319C124.262 162.088 124.209 163.2 124.209 164.511C124.157 167.161 124.183 170.666 124.236 174.171C124.315 177.676 124.367 181.181 124.446 183.831Z" fill="#3F3F3F"/>
<path d="M124.446 142.228C124.499 143.539 124.525 144.651 124.551 145.42C124.578 146.189 124.604 146.645 124.604 146.645C124.604 146.645 124.683 146.218 124.814 145.449C124.92 144.679 125.104 143.596 125.235 142.285C125.525 139.635 125.683 136.102 125.63 132.568C125.577 129.035 125.314 125.501 124.999 122.879C124.683 120.258 124.341 118.52 124.341 118.52C124.341 118.52 124.315 118.975 124.288 119.745C124.262 120.514 124.209 121.626 124.209 122.936C124.157 125.587 124.183 129.092 124.236 132.597C124.315 136.102 124.367 139.607 124.446 142.228Z" fill="#3F3F3F"/>
<path d="M144.889 270.832C145.099 272.143 145.284 273.682 145.468 275.306C145.626 276.93 145.757 278.697 145.81 280.435C145.836 281.319 145.862 282.174 145.81 283.029C145.784 283.883 145.784 284.738 145.705 285.536C145.599 287.161 145.415 288.699 145.231 289.982C144.994 291.264 144.836 292.375 144.652 293.116C144.494 293.886 144.415 294.313 144.415 294.313C144.415 294.313 144.6 293.914 144.915 293.202C145.231 292.489 145.626 291.463 146.02 290.181C146.389 288.899 146.757 287.332 146.941 285.65C147.046 284.795 147.152 283.94 147.178 283.029C147.231 282.145 147.231 281.233 147.204 280.321C147.152 279.41 147.125 278.498 147.02 277.614C146.967 276.731 146.783 275.876 146.678 275.021C146.389 273.368 146.047 271.83 145.652 270.547C145.284 269.265 144.863 268.21 144.6 267.498C144.31 266.786 144.126 266.387 144.126 266.387C144.126 266.387 144.179 266.843 144.336 267.584C144.494 268.438 144.678 269.55 144.889 270.832Z" fill="#3F3F3F"/>
<path d="M144.021 252.735C143.889 253.903 143.81 254.9 143.705 255.584C143.626 256.268 143.6 256.667 143.6 256.667C143.6 256.667 143.757 256.297 143.968 255.641C144.205 254.986 144.52 254.045 144.81 252.877C145.099 251.709 145.389 250.341 145.599 248.859C145.81 247.377 145.915 245.753 145.941 244.157C145.941 242.561 145.862 240.937 145.678 239.455C145.494 237.945 145.231 236.577 144.915 235.437C144.31 233.129 143.626 231.676 143.626 231.676C143.626 231.676 143.679 232.075 143.784 232.759C143.889 233.443 143.994 234.411 144.126 235.58C144.257 236.748 144.363 238.116 144.442 239.569C144.494 240.31 144.494 241.051 144.52 241.82C144.52 242.59 144.547 243.359 144.52 244.129C144.52 245.696 144.442 247.235 144.363 248.688C144.257 250.198 144.152 251.566 144.021 252.735Z" fill="#3F3F3F"/>
</mask>
<g mask="url(#mask0_225_1639)">
<rect width="236.79" height="302.061" fill="url(#paint0_linear_225_1639)"/>
<rect width="236.79" height="302.061" fill="white" style="mix-blend-mode:soft-light"/>
</g>
<defs>
<linearGradient id="paint0_linear_225_1639" x1="16.1843" y1="150.706" x2="236.762" y2="150.706" gradientUnits="userSpaceOnUse">
<stop stop-color="#0A2E8F"/>
<stop offset="0.347916" stop-color="#0F498D"/>
<stop offset="0.519791" stop-color="#166F8A"/>
<stop offset="1" stop-color="#1A8589"/>
</linearGradient>
</defs>
</svg>
