<svg width="508" height="190" viewBox="0 0 508 190" fill="none" xmlns="http://www.w3.org/2000/svg">
<path d="M50.6467 102.926C46.8453 101.055 43.4925 99.2851 40.0369 97.7435C36.9764 96.3789 35.5028 94.5431 35.7806 90.8672C36.2869 84.1782 36.4536 77.4357 36.2519 70.7302C36.1408 67.044 38.0219 65.3399 40.7531 63.8415C49.6341 58.9719 58.513 54.1003 67.3816 49.208C73.1135 46.0467 78.8023 42.8092 84.5713 39.7199C85.2402 39.3618 86.4813 39.4174 87.1502 39.8064C94.8415 44.2993 102.471 48.8931 110.115 53.4684C110.237 53.5405 110.302 53.7072 110.58 54.0776C94.436 63.3846 78.3248 72.671 61.8863 82.1488C66.0643 84.8862 69.8987 87.3951 73.8195 89.9637C85.1764 83.5031 96.4818 77.0405 107.82 70.6355C112.517 67.9805 117.271 65.4263 122.03 62.8824C122.577 62.5902 123.473 62.3576 123.94 62.6025C126.978 64.1997 129.993 65.8606 132.897 67.6882C133.588 68.1225 134.189 69.2524 134.224 70.086C134.37 73.5581 134.375 77.0467 134.22 80.5188C134.185 81.3215 133.51 82.4144 132.81 82.8198C124.156 87.8211 115.45 92.7319 106.742 97.6427C97.2681 102.984 87.78 108.3 78.2939 113.622C76.2008 114.797 74.0912 115.944 71.5267 117.358C76.7215 120.509 81.5479 123.433 86.3722 126.358C102.138 117.352 117.913 108.337 134.033 99.1286C134.033 100.611 134.056 101.81 134.029 103.01C133.879 109.804 133.759 116.602 133.498 123.392C133.467 124.181 132.808 125.261 132.123 125.658C126.109 129.137 120.015 132.475 113.96 135.883C106.616 140.018 99.1636 143.976 91.9971 148.397C86.9793 151.492 82.6963 152.169 77.343 148.644C68.0175 142.506 58.1919 137.133 48.5597 131.46C44.9929 129.361 41.4076 127.29 37.7914 125.28C36.2602 124.428 35.4513 123.302 35.5316 121.507C35.6036 119.928 35.6201 118.339 35.5275 116.765C35.2908 112.692 37.3181 110.183 40.8149 108.421C44.0482 106.795 47.1437 104.9 50.6467 102.926Z" fill="#F9F9F9"/>
<path d="M61.9002 82.168L37.6016 96.2478L38.1778 96.7047C38.1778 96.7047 39.5548 97.4889 40.9769 98.166C42.3991 98.8432 50.6462 102.922 50.6462 102.922L73.821 89.9622L61.9002 82.168Z" fill="url(#paint0_linear_308_1635)"/>
<path d="M86.4794 126.35L62.9568 139.746L51.8839 133.337L47.8931 131.001L47.5 130.771L71.6381 117.355L86.4794 126.35Z" fill="url(#paint1_linear_308_1635)"/>
<path d="M165.944 74.8833V79.7811H173.842V84.334H165.944V89.6457H174.877V94.3711H160.046V70.1579H174.877V74.8833H165.944ZM193.538 79.8156V84.7134H178.361V79.8156H193.538ZM207.475 94.6125C205.704 94.6125 204.118 94.3251 202.715 93.7502C201.313 93.1754 200.186 92.3246 199.335 91.1979C198.507 90.0711 198.07 88.7145 198.024 87.1278H204.302C204.394 88.0246 204.704 88.7145 205.233 89.1973C205.762 89.6572 206.452 89.8872 207.303 89.8872C208.176 89.8872 208.866 89.6917 209.372 89.3008C209.878 88.8869 210.131 88.3235 210.131 87.6107C210.131 87.0129 209.924 86.5185 209.51 86.1276C209.119 85.7367 208.625 85.4147 208.027 85.1618C207.452 84.9089 206.624 84.6214 205.543 84.2995C203.98 83.8166 202.704 83.3337 201.715 82.8509C200.726 82.368 199.875 81.6552 199.163 80.7124C198.45 79.7696 198.093 78.5394 198.093 77.0218C198.093 74.7683 198.91 73.0092 200.542 71.7445C202.175 70.4568 204.302 69.813 206.923 69.813C209.591 69.813 211.741 70.4568 213.373 71.7445C215.006 73.0092 215.88 74.7798 215.994 77.0563H209.614C209.568 76.2744 209.28 75.6651 208.751 75.2282C208.222 74.7683 207.544 74.5384 206.716 74.5384C206.003 74.5384 205.429 74.7338 204.992 75.1247C204.555 75.4926 204.336 76.033 204.336 76.7458C204.336 77.5276 204.704 78.137 205.44 78.5739C206.176 79.0108 207.326 79.4822 208.889 79.9881C210.453 80.5169 211.718 81.0228 212.683 81.5057C213.672 81.9886 214.523 82.6899 215.236 83.6097C215.948 84.5295 216.305 85.7137 216.305 87.1623C216.305 88.542 215.948 89.7952 215.236 90.9219C214.546 92.0487 213.534 92.9454 212.2 93.6123C210.867 94.2791 209.292 94.6125 207.475 94.6125ZM238.94 75.1247V94.3711H233.041V91.7497C232.444 92.6005 231.627 93.2904 230.593 93.8192C229.581 94.3251 228.454 94.578 227.212 94.578C225.741 94.578 224.442 94.2561 223.315 93.6123C222.188 92.9454 221.314 91.9912 220.693 90.7495C220.073 89.5078 219.762 88.0476 219.762 86.369V75.1247H225.626V85.5757C225.626 86.8634 225.959 87.8637 226.626 88.5765C227.293 89.2893 228.19 89.6457 229.316 89.6457C230.466 89.6457 231.374 89.2893 232.041 88.5765C232.708 87.8637 233.041 86.8634 233.041 85.5757V75.1247H238.94ZM267.734 74.9178C270.126 74.9178 272.023 75.6421 273.425 77.0908C274.851 78.5394 275.564 80.5514 275.564 83.1268V94.3711H269.7V83.9201C269.7 82.6784 269.367 81.7241 268.7 81.0573C268.056 80.3675 267.159 80.0225 266.01 80.0225C264.86 80.0225 263.952 80.3675 263.285 81.0573C262.641 81.7241 262.319 82.6784 262.319 83.9201V94.3711H256.455V83.9201C256.455 82.6784 256.122 81.7241 255.455 81.0573C254.811 80.3675 253.915 80.0225 252.765 80.0225C251.615 80.0225 250.707 80.3675 250.04 81.0573C249.396 81.7241 249.074 82.6784 249.074 83.9201V94.3711H243.176V75.1247H249.074V77.5391C249.672 76.7343 250.454 76.102 251.42 75.6421C252.385 75.1592 253.478 74.9178 254.696 74.9178C256.145 74.9178 257.433 75.2282 258.559 75.8491C259.709 76.4699 260.606 77.3552 261.25 78.5049C261.917 77.4472 262.825 76.5849 263.975 75.918C265.124 75.2512 266.378 74.9178 267.734 74.9178ZM304.247 74.9178C306.638 74.9178 308.535 75.6421 309.938 77.0908C311.364 78.5394 312.077 80.5514 312.077 83.1268V94.3711H306.213V83.9201C306.213 82.6784 305.879 81.7241 305.213 81.0573C304.569 80.3675 303.672 80.0225 302.522 80.0225C301.373 80.0225 300.464 80.3675 299.797 81.0573C299.154 81.7241 298.832 82.6784 298.832 83.9201V94.3711H292.968V83.9201C292.968 82.6784 292.635 81.7241 291.968 81.0573C291.324 80.3675 290.427 80.0225 289.277 80.0225C288.128 80.0225 287.219 80.3675 286.553 81.0573C285.909 81.7241 285.587 82.6784 285.587 83.9201V94.3711H279.689V75.1247H285.587V77.5391C286.185 76.7343 286.967 76.102 287.932 75.6421C288.898 75.1592 289.99 74.9178 291.209 74.9178C292.658 74.9178 293.945 75.2282 295.072 75.8491C296.222 76.4699 297.119 77.3552 297.762 78.5049C298.429 77.4472 299.338 76.5849 300.487 75.918C301.637 75.2512 302.89 74.9178 304.247 74.9178ZM319.168 73.1242C318.133 73.1242 317.282 72.8253 316.615 72.2274C315.972 71.6066 315.65 70.8478 315.65 69.951C315.65 69.0312 315.972 68.2724 316.615 67.6745C317.282 67.0537 318.133 66.7432 319.168 66.7432C320.18 66.7432 321.007 67.0537 321.651 67.6745C322.318 68.2724 322.651 69.0312 322.651 69.951C322.651 70.8478 322.318 71.6066 321.651 72.2274C321.007 72.8253 320.18 73.1242 319.168 73.1242ZM322.1 75.1247V94.3711H316.201V75.1247H322.1ZM337.101 89.3698V94.3711H334.1C331.962 94.3711 330.294 93.8537 329.099 92.819C327.903 91.7612 327.305 90.0481 327.305 87.6797V80.0225H324.96V75.1247H327.305V70.4339H333.203V75.1247H337.066V80.0225H333.203V87.7487C333.203 88.3235 333.341 88.7374 333.617 88.9904C333.893 89.2433 334.353 89.3698 334.997 89.3698H337.101ZM341.731 70.1579H347.767L343.904 79.4017H339.938L341.731 70.1579ZM350.439 89.6457C351.221 89.0249 351.577 88.7374 351.508 88.7834C353.762 86.9209 355.532 85.3918 356.82 84.196C358.13 83.0003 359.234 81.7471 360.131 80.4364C361.028 79.1258 361.476 77.8496 361.476 76.6079C361.476 75.6651 361.258 74.9293 360.821 74.4004C360.384 73.8715 359.729 73.6071 358.855 73.6071C357.981 73.6071 357.291 73.9405 356.785 74.6073C356.302 75.2512 356.061 76.171 356.061 77.3667H350.37C350.416 75.4122 350.83 73.7795 351.612 72.4689C352.416 71.1582 353.463 70.1924 354.75 69.5716C356.061 68.9507 357.51 68.6403 359.096 68.6403C361.833 68.6403 363.891 69.3416 365.27 70.7443C366.673 72.1469 367.374 73.975 367.374 76.2285C367.374 78.6889 366.535 80.9768 364.856 83.0923C363.178 85.1848 361.039 87.2313 358.441 89.2318H367.754V94.0262H350.439V89.6457ZM370.488 89.8872V85.1273L381.388 69.5371H387.976V84.7824H390.804V89.8872H387.976V94.3711H382.078V89.8872H370.488ZM382.492 76.0215L376.697 84.7824H382.492V76.0215Z" fill="#F9F9F9"/>
<path d="M161.038 46.1283V58.8477H158.952V46.1283H161.038ZM165.864 46.1283V58.8477H163.777V46.1283H165.864ZM176.82 46.1283V47.8303H173.434V58.8477H171.348V47.8303H167.944V46.1283H176.82ZM190.495 52.3141C191.178 52.4361 191.758 52.7961 192.234 53.3939C192.709 53.9917 192.947 54.6689 192.947 55.4253C192.947 56.072 192.776 56.6576 192.435 57.1822C192.105 57.6947 191.624 58.1034 190.989 58.4084C190.355 58.7012 189.616 58.8477 188.775 58.8477H183.687V46.1283H188.537C189.403 46.1283 190.147 46.2747 190.769 46.5676C191.392 46.8604 191.861 47.2569 192.179 47.7571C192.496 48.2452 192.654 48.7942 192.654 49.4042C192.654 50.1363 192.459 50.7463 192.069 51.2344C191.678 51.7224 191.154 52.0823 190.495 52.3141ZM185.773 51.4723H188.354C189.037 51.4723 189.568 51.3198 189.946 51.0147C190.336 50.6975 190.532 50.2461 190.532 49.6605C190.532 49.087 190.336 48.6417 189.946 48.3245C189.568 47.995 189.037 47.8303 188.354 47.8303H185.773V51.4723ZM188.592 57.1456C189.299 57.1456 189.854 56.9748 190.257 56.6332C190.66 56.2916 190.861 55.8158 190.861 55.2057C190.861 54.5835 190.647 54.0893 190.22 53.7233C189.793 53.3573 189.226 53.1743 188.518 53.1743H185.773V57.1456H188.592ZM205.372 46.1283V58.8477H203.285V53.2841H197.301V58.8477H195.215V46.1283H197.301V51.5821H203.285V46.1283H205.372ZM210.186 46.1283V54.2358C210.186 55.1996 210.436 55.9256 210.937 56.4136C211.449 56.9016 212.157 57.1456 213.06 57.1456C213.975 57.1456 214.682 56.9016 215.183 56.4136C215.695 55.9256 215.951 55.1996 215.951 54.2358V46.1283H218.038V54.1992C218.038 55.2362 217.812 56.1147 217.36 56.8345C216.909 57.5544 216.305 58.0912 215.549 58.445C214.792 58.7989 213.956 58.9758 213.041 58.9758C212.126 58.9758 211.29 58.7989 210.534 58.445C209.79 58.0912 209.198 57.5544 208.759 56.8345C208.32 56.1147 208.1 55.2362 208.1 54.1992V46.1283H210.186ZM221.083 46.1283H223.353L221.431 50.484H219.967L221.083 46.1283ZM229.377 58.9758C228.523 58.9758 227.755 58.8294 227.071 58.5365C226.388 58.2315 225.851 57.8045 225.461 57.2555C225.07 56.7064 224.875 56.0659 224.875 55.3338H227.108C227.157 55.8829 227.37 56.3343 227.748 56.6881C228.139 57.0419 228.682 57.2189 229.377 57.2189C230.097 57.2189 230.658 57.048 231.061 56.7064C231.464 56.3526 231.665 55.9012 231.665 55.3521C231.665 54.9251 231.537 54.5774 231.281 54.309C231.037 54.0405 230.725 53.8331 230.347 53.6867C229.981 53.5403 229.469 53.3817 228.81 53.2109C227.98 52.9913 227.303 52.7717 226.778 52.552C226.266 52.3202 225.827 51.9664 225.461 51.4906C225.095 51.0147 224.912 50.3803 224.912 49.5873C224.912 48.8552 225.095 48.2147 225.461 47.6656C225.827 47.1166 226.339 46.6957 226.998 46.4028C227.657 46.11 228.419 45.9636 229.286 45.9636C230.518 45.9636 231.525 46.2747 232.305 46.897C233.098 47.507 233.538 48.3489 233.623 49.4225H231.317C231.281 48.9589 231.061 48.5624 230.658 48.233C230.256 47.9035 229.725 47.7388 229.066 47.7388C228.468 47.7388 227.98 47.8913 227.602 48.1964C227.224 48.5014 227.035 48.9406 227.035 49.514C227.035 49.9045 227.151 50.2278 227.382 50.484C227.626 50.728 227.931 50.9232 228.297 51.0696C228.664 51.2161 229.164 51.3747 229.798 51.5455C230.64 51.7773 231.323 52.0091 231.848 52.2409C232.385 52.4727 232.836 52.8327 233.202 53.3207C233.58 53.7965 233.77 54.4371 233.77 55.2423C233.77 55.889 233.593 56.499 233.239 57.0724C232.897 57.6459 232.391 58.1095 231.72 58.4633C231.061 58.805 230.28 58.9758 229.377 58.9758Z" fill="#F9F9F9"/>
<path d="M403.96 92.7521C404.833 91.997 405.52 91.3784 406.02 90.8962C406.53 90.4049 406.953 89.8955 407.289 89.3678C407.626 88.8402 407.794 88.3126 407.794 87.7849C407.794 87.2391 407.662 86.8115 407.399 86.5022C407.144 86.1929 406.739 86.0382 406.184 86.0382C405.647 86.0382 405.229 86.2111 404.929 86.5568C404.637 86.8934 404.483 87.3482 404.465 87.9214H402.964C402.991 86.8843 403.3 86.0928 403.891 85.547C404.492 84.992 405.252 84.7146 406.17 84.7146C407.162 84.7146 407.935 84.9875 408.49 85.5333C409.054 86.0792 409.336 86.8069 409.336 87.7167C409.336 88.3717 409.168 89.004 408.831 89.6135C408.504 90.2139 408.108 90.7552 407.644 91.2373C407.189 91.7104 406.607 92.2608 405.897 92.8885L405.283 93.4344H409.609V94.7307H402.977V93.5981L403.96 92.7521ZM424.042 89.2723V90.5823H418.434V89.2723H424.042ZM429.401 92.793V91.6194L433.986 85.0421H435.87V91.442H437.139V92.793H435.87V94.8672H434.341V92.793H429.401ZM434.409 86.625L431.189 91.442H434.409V86.625ZM454.848 85.3832V86.6523H450.822V89.4497H453.961V90.7188H450.822V94.8672H449.267V85.3832H454.848ZM457.845 86.6386V89.4224H461.12V90.6915H457.845V93.5981H461.53V94.8672H456.29V85.3696H461.53V86.6386H457.845ZM468.522 89.9956C469.032 90.0865 469.464 90.3549 469.818 90.8007C470.173 91.2464 470.351 91.7513 470.351 92.3154C470.351 92.7975 470.223 93.2342 469.969 93.6254C469.723 94.0075 469.364 94.3122 468.89 94.5397C468.417 94.758 467.867 94.8672 467.239 94.8672H463.446V85.3832H467.062C467.708 85.3832 468.263 85.4924 468.727 85.7107C469.191 85.9291 469.541 86.2247 469.777 86.5977C470.014 86.9616 470.132 87.371 470.132 87.8258C470.132 88.3717 469.987 88.8266 469.696 89.1904C469.404 89.5543 469.013 89.8227 468.522 89.9956ZM465.001 89.3678H466.925C467.435 89.3678 467.831 89.2541 468.113 89.0267C468.404 88.7902 468.549 88.4536 468.549 88.0169C468.549 87.5893 468.404 87.2573 468.113 87.0207C467.831 86.7751 467.435 86.6523 466.925 86.6523H465.001V89.3678ZM467.103 93.5981C467.631 93.5981 468.044 93.4707 468.345 93.216C468.645 92.9613 468.795 92.6065 468.795 92.1516C468.795 91.6877 468.636 91.3192 468.317 91.0463C467.999 90.7734 467.576 90.6369 467.048 90.6369H465.001V93.5981H467.103Z" fill="#F9F9F9"/>
<path d="M414.805 86.8672H413.768L412.033 84.2411V86.8672H410.996V82.6096H412.033L413.768 85.2479V82.6096H414.805V86.8672ZM417.152 82.6096C417.601 82.6096 417.993 82.6986 418.328 82.8765C418.664 83.0544 418.923 83.3051 419.105 83.6285C419.291 83.948 419.384 84.3179 419.384 84.7384C419.384 85.1549 419.291 85.5248 419.105 85.8483C418.923 86.1717 418.662 86.4224 418.322 86.6003C417.987 86.7782 417.596 86.8672 417.152 86.8672H415.557V82.6096H417.152ZM417.085 85.9696C417.477 85.9696 417.782 85.8624 418.001 85.6481C418.219 85.4339 418.328 85.1306 418.328 84.7384C418.328 84.3462 418.219 84.0409 418.001 83.8226C417.782 83.6043 417.477 83.4951 417.085 83.4951H416.594V85.9696H417.085Z" fill="#F9F9F9"/>
<path d="M442.868 82.6096V83.4405H441.739V86.8672H440.702V83.4405H439.574V82.6096H442.868ZM447.075 82.6096V86.8672H446.038V85.1144H444.425V86.8672H443.388V82.6096H444.425V84.2775H446.038V82.6096H447.075Z" fill="#F9F9F9"/>
<path d="M178.454 105.984V127.957L165.271 117.703V126.492H159.411V104.52L172.595 115.506V107.449L171.13 105.984H178.454ZM194.632 105.984V111.844H187.308V114.773H196.097L187.308 119.168V120.633H194.632V126.492H181.449V107.449L179.984 105.984H194.632ZM202.681 116.238L195.708 105.984H202.344L205.918 111.316L209.566 105.984H216.216L209.331 116.282L216.216 126.492H209.697L205.874 121.189L202.403 126.492H195.708L202.681 116.238ZM222.858 105.984V116.238C222.858 119.168 223.835 120.633 225.788 120.633C227.741 120.633 228.718 119.168 228.718 116.238V105.984H234.577V116.238C234.577 123.074 231.647 126.492 225.788 126.492C219.929 126.492 216.999 123.074 216.999 116.238V107.449L215.534 105.984H222.858ZM243.563 119.168C238.68 119.168 236.239 116.951 236.239 112.518C236.239 108.162 238.68 105.984 243.563 105.984H252.352L246.493 111.844H243.563C242.586 111.844 242.098 112.068 242.098 112.518C242.098 113.045 242.586 113.309 243.563 113.309H246.493C251.375 113.309 253.817 115.486 253.817 119.842C253.817 124.275 251.375 126.492 246.493 126.492H237.704L243.563 120.633H246.493C247.469 120.633 247.957 120.369 247.957 119.842C247.957 119.393 247.469 119.168 246.493 119.168H243.563ZM278.709 126.492C275.877 126.492 273.46 125.491 271.458 123.489C269.456 121.487 268.455 119.07 268.455 116.238C268.455 113.406 269.456 110.989 271.458 108.987C273.46 106.985 275.877 105.984 278.709 105.984C281.541 105.984 283.958 106.985 285.96 108.987C287.962 110.989 288.963 113.406 288.963 116.238C288.963 119.07 287.962 121.487 285.96 123.489C283.958 125.491 281.541 126.492 278.709 126.492ZM278.709 120.633C279.92 120.633 280.955 120.203 281.814 119.344C282.673 118.484 283.103 117.449 283.103 116.238C283.103 115.027 282.673 113.992 281.814 113.133C280.955 112.273 279.92 111.844 278.709 111.844C277.498 111.844 276.463 112.273 275.603 113.133C274.744 113.992 274.314 115.027 274.314 116.238C274.314 117.449 274.744 118.484 275.603 119.344C276.463 120.203 277.498 120.633 278.709 120.633ZM305.654 105.984V111.844H296.864V114.773H305.654L296.864 120.633V126.492H291.005V107.449L289.54 105.984H305.654ZM341.693 105.984V127.957L328.509 117.703V126.492H322.65V104.52L335.833 115.506V107.449L334.369 105.984H341.693ZM353.975 126.492C351.143 126.492 348.726 125.491 346.724 123.489C344.722 121.487 343.721 119.07 343.721 116.238C343.721 113.406 344.722 110.989 346.724 108.987C348.726 106.985 351.143 105.984 353.975 105.984C356.807 105.984 359.224 106.985 361.226 108.987C363.228 110.989 364.229 113.406 364.229 116.238C364.229 119.07 363.228 121.487 361.226 123.489C359.224 125.491 356.807 126.492 353.975 126.492ZM353.975 120.633C355.186 120.633 356.221 120.203 357.08 119.344C357.939 118.484 358.369 117.449 358.369 116.238C358.369 115.027 357.939 113.992 357.08 113.133C356.221 112.273 355.186 111.844 353.975 111.844C352.764 111.844 351.729 112.273 350.869 113.133C350.01 113.992 349.58 115.027 349.58 116.238C349.58 117.449 350.01 118.484 350.869 119.344C351.729 120.203 352.764 120.633 353.975 120.633ZM370.021 105.984L374.416 117.703L378.81 105.984H384.67L374.416 132.352L364.718 107.42V107.449L363.254 105.984H370.021ZM399.046 105.984V111.844H391.722V114.773H400.511L391.722 119.168V120.633H399.046V126.492H385.863V107.449L384.398 105.984H399.046ZM408.149 105.984V120.633H414.009L408.149 126.492H402.29V107.449L400.825 105.984H408.149ZM413.048 105.984H427.697V111.844H423.302V132.352L417.443 126.492V111.844H414.513L413.048 113.309V105.984ZM436.141 105.984V126.492H430.281V107.449L428.816 105.984H436.141ZM452.656 105.984V111.844H445.332V114.773H454.121L445.332 119.168V120.633H452.656V126.492H439.472V107.449L438.007 105.984H452.656ZM461.73 119.168C456.847 119.168 454.405 116.951 454.405 112.518C454.405 108.162 456.847 105.984 461.73 105.984H470.519L464.659 111.844H461.73C460.753 111.844 460.265 112.068 460.265 112.518C460.265 113.045 460.753 113.309 461.73 113.309H464.659C469.542 113.309 471.984 115.486 471.984 119.842C471.984 124.275 469.542 126.492 464.659 126.492H455.87L461.73 120.633H464.659C465.636 120.633 466.124 120.369 466.124 119.842C466.124 119.393 465.636 119.168 464.659 119.168H461.73Z" fill="black"/>
<path d="M178.454 105.984V127.957L165.271 117.703V126.492H159.411V104.52L172.595 115.506V107.449L171.13 105.984H178.454ZM194.632 105.984V111.844H187.308V114.773H196.097L187.308 119.168V120.633H194.632V126.492H181.449V107.449L179.984 105.984H194.632ZM202.681 116.238L195.708 105.984H202.344L205.918 111.316L209.566 105.984H216.216L209.331 116.282L216.216 126.492H209.697L205.874 121.189L202.403 126.492H195.708L202.681 116.238ZM222.858 105.984V116.238C222.858 119.168 223.835 120.633 225.788 120.633C227.741 120.633 228.718 119.168 228.718 116.238V105.984H234.577V116.238C234.577 123.074 231.647 126.492 225.788 126.492C219.929 126.492 216.999 123.074 216.999 116.238V107.449L215.534 105.984H222.858ZM243.563 119.168C238.68 119.168 236.239 116.951 236.239 112.518C236.239 108.162 238.68 105.984 243.563 105.984H252.352L246.493 111.844H243.563C242.586 111.844 242.098 112.068 242.098 112.518C242.098 113.045 242.586 113.309 243.563 113.309H246.493C251.375 113.309 253.817 115.486 253.817 119.842C253.817 124.275 251.375 126.492 246.493 126.492H237.704L243.563 120.633H246.493C247.469 120.633 247.957 120.369 247.957 119.842C247.957 119.393 247.469 119.168 246.493 119.168H243.563ZM278.709 126.492C275.877 126.492 273.46 125.491 271.458 123.489C269.456 121.487 268.455 119.07 268.455 116.238C268.455 113.406 269.456 110.989 271.458 108.987C273.46 106.985 275.877 105.984 278.709 105.984C281.541 105.984 283.958 106.985 285.96 108.987C287.962 110.989 288.963 113.406 288.963 116.238C288.963 119.07 287.962 121.487 285.96 123.489C283.958 125.491 281.541 126.492 278.709 126.492ZM278.709 120.633C279.92 120.633 280.955 120.203 281.814 119.344C282.673 118.484 283.103 117.449 283.103 116.238C283.103 115.027 282.673 113.992 281.814 113.133C280.955 112.273 279.92 111.844 278.709 111.844C277.498 111.844 276.463 112.273 275.603 113.133C274.744 113.992 274.314 115.027 274.314 116.238C274.314 117.449 274.744 118.484 275.603 119.344C276.463 120.203 277.498 120.633 278.709 120.633ZM305.654 105.984V111.844H296.864V114.773H305.654L296.864 120.633V126.492H291.005V107.449L289.54 105.984H305.654ZM341.693 105.984V127.957L328.509 117.703V126.492H322.65V104.52L335.833 115.506V107.449L334.369 105.984H341.693ZM353.975 126.492C351.143 126.492 348.726 125.491 346.724 123.489C344.722 121.487 343.721 119.07 343.721 116.238C343.721 113.406 344.722 110.989 346.724 108.987C348.726 106.985 351.143 105.984 353.975 105.984C356.807 105.984 359.224 106.985 361.226 108.987C363.228 110.989 364.229 113.406 364.229 116.238C364.229 119.07 363.228 121.487 361.226 123.489C359.224 125.491 356.807 126.492 353.975 126.492ZM353.975 120.633C355.186 120.633 356.221 120.203 357.08 119.344C357.939 118.484 358.369 117.449 358.369 116.238C358.369 115.027 357.939 113.992 357.08 113.133C356.221 112.273 355.186 111.844 353.975 111.844C352.764 111.844 351.729 112.273 350.869 113.133C350.01 113.992 349.58 115.027 349.58 116.238C349.58 117.449 350.01 118.484 350.869 119.344C351.729 120.203 352.764 120.633 353.975 120.633ZM370.021 105.984L374.416 117.703L378.81 105.984H384.67L374.416 132.352L364.718 107.42V107.449L363.254 105.984H370.021ZM399.046 105.984V111.844H391.722V114.773H400.511L391.722 119.168V120.633H399.046V126.492H385.863V107.449L384.398 105.984H399.046ZM408.149 105.984V120.633H414.009L408.149 126.492H402.29V107.449L400.825 105.984H408.149ZM413.048 105.984H427.697V111.844H423.302V132.352L417.443 126.492V111.844H414.513L413.048 113.309V105.984ZM436.141 105.984V126.492H430.281V107.449L428.816 105.984H436.141ZM452.656 105.984V111.844H445.332V114.773H454.121L445.332 119.168V120.633H452.656V126.492H439.472V107.449L438.007 105.984H452.656ZM461.73 119.168C456.847 119.168 454.405 116.951 454.405 112.518C454.405 108.162 456.847 105.984 461.73 105.984H470.519L464.659 111.844H461.73C460.753 111.844 460.265 112.068 460.265 112.518C460.265 113.045 460.753 113.309 461.73 113.309H464.659C469.542 113.309 471.984 115.486 471.984 119.842C471.984 124.275 469.542 126.492 464.659 126.492H455.87L461.73 120.633H464.659C465.636 120.633 466.124 120.369 466.124 119.842C466.124 119.393 465.636 119.168 464.659 119.168H461.73Z" fill="url(#paint2_linear_308_1635)"/>
<path d="M178.454 105.984V127.957L165.271 117.703V126.492H159.411V104.52L172.595 115.506V107.449L171.13 105.984H178.454ZM194.632 105.984V111.844H187.308V114.773H196.097L187.308 119.168V120.633H194.632V126.492H181.449V107.449L179.984 105.984H194.632ZM202.681 116.238L195.708 105.984H202.344L205.918 111.316L209.566 105.984H216.216L209.331 116.282L216.216 126.492H209.697L205.874 121.189L202.403 126.492H195.708L202.681 116.238ZM222.858 105.984V116.238C222.858 119.168 223.835 120.633 225.788 120.633C227.741 120.633 228.718 119.168 228.718 116.238V105.984H234.577V116.238C234.577 123.074 231.647 126.492 225.788 126.492C219.929 126.492 216.999 123.074 216.999 116.238V107.449L215.534 105.984H222.858ZM243.563 119.168C238.68 119.168 236.239 116.951 236.239 112.518C236.239 108.162 238.68 105.984 243.563 105.984H252.352L246.493 111.844H243.563C242.586 111.844 242.098 112.068 242.098 112.518C242.098 113.045 242.586 113.309 243.563 113.309H246.493C251.375 113.309 253.817 115.486 253.817 119.842C253.817 124.275 251.375 126.492 246.493 126.492H237.704L243.563 120.633H246.493C247.469 120.633 247.957 120.369 247.957 119.842C247.957 119.393 247.469 119.168 246.493 119.168H243.563ZM278.709 126.492C275.877 126.492 273.46 125.491 271.458 123.489C269.456 121.487 268.455 119.07 268.455 116.238C268.455 113.406 269.456 110.989 271.458 108.987C273.46 106.985 275.877 105.984 278.709 105.984C281.541 105.984 283.958 106.985 285.96 108.987C287.962 110.989 288.963 113.406 288.963 116.238C288.963 119.07 287.962 121.487 285.96 123.489C283.958 125.491 281.541 126.492 278.709 126.492ZM278.709 120.633C279.92 120.633 280.955 120.203 281.814 119.344C282.673 118.484 283.103 117.449 283.103 116.238C283.103 115.027 282.673 113.992 281.814 113.133C280.955 112.273 279.92 111.844 278.709 111.844C277.498 111.844 276.463 112.273 275.603 113.133C274.744 113.992 274.314 115.027 274.314 116.238C274.314 117.449 274.744 118.484 275.603 119.344C276.463 120.203 277.498 120.633 278.709 120.633ZM305.654 105.984V111.844H296.864V114.773H305.654L296.864 120.633V126.492H291.005V107.449L289.54 105.984H305.654ZM341.693 105.984V127.957L328.509 117.703V126.492H322.65V104.52L335.833 115.506V107.449L334.369 105.984H341.693ZM353.975 126.492C351.143 126.492 348.726 125.491 346.724 123.489C344.722 121.487 343.721 119.07 343.721 116.238C343.721 113.406 344.722 110.989 346.724 108.987C348.726 106.985 351.143 105.984 353.975 105.984C356.807 105.984 359.224 106.985 361.226 108.987C363.228 110.989 364.229 113.406 364.229 116.238C364.229 119.07 363.228 121.487 361.226 123.489C359.224 125.491 356.807 126.492 353.975 126.492ZM353.975 120.633C355.186 120.633 356.221 120.203 357.08 119.344C357.939 118.484 358.369 117.449 358.369 116.238C358.369 115.027 357.939 113.992 357.08 113.133C356.221 112.273 355.186 111.844 353.975 111.844C352.764 111.844 351.729 112.273 350.869 113.133C350.01 113.992 349.58 115.027 349.58 116.238C349.58 117.449 350.01 118.484 350.869 119.344C351.729 120.203 352.764 120.633 353.975 120.633ZM370.021 105.984L374.416 117.703L378.81 105.984H384.67L374.416 132.352L364.718 107.42V107.449L363.254 105.984H370.021ZM399.046 105.984V111.844H391.722V114.773H400.511L391.722 119.168V120.633H399.046V126.492H385.863V107.449L384.398 105.984H399.046ZM408.149 105.984V120.633H414.009L408.149 126.492H402.29V107.449L400.825 105.984H408.149ZM413.048 105.984H427.697V111.844H423.302V132.352L417.443 126.492V111.844H414.513L413.048 113.309V105.984ZM436.141 105.984V126.492H430.281V107.449L428.816 105.984H436.141ZM452.656 105.984V111.844H445.332V114.773H454.121L445.332 119.168V120.633H452.656V126.492H439.472V107.449L438.007 105.984H452.656ZM461.73 119.168C456.847 119.168 454.405 116.951 454.405 112.518C454.405 108.162 456.847 105.984 461.73 105.984H470.519L464.659 111.844H461.73C460.753 111.844 460.265 112.068 460.265 112.518C460.265 113.045 460.753 113.309 461.73 113.309H464.659C469.542 113.309 471.984 115.486 471.984 119.842C471.984 124.275 469.542 126.492 464.659 126.492H455.87L461.73 120.633H464.659C465.636 120.633 466.124 120.369 466.124 119.842C466.124 119.393 465.636 119.168 464.659 119.168H461.73Z" fill="white" style="mix-blend-mode:soft-light"/>
<defs>
<linearGradient id="paint0_linear_308_1635" x1="37.6167" y1="96.337" x2="67.2365" y2="92.5642" gradientUnits="userSpaceOnUse">
<stop stop-color="#1F3E91"/>
<stop offset="0.295833" stop-color="#546CAB"/>
<stop offset="1" stop-color="white"/>
</linearGradient>
<linearGradient id="paint1_linear_308_1635" x1="47.5" y1="130.796" x2="82.6162" y2="126.25" gradientUnits="userSpaceOnUse">
<stop stop-color="#1A8589"/>
<stop offset="0.3375" stop-color="#54A4A7"/>
<stop offset="0.530208" stop-color="#74B5B8"/>
<stop offset="1" stop-color="white"/>
</linearGradient>
<linearGradient id="paint2_linear_308_1635" x1="179.291" y1="114.454" x2="471.793" y2="114.454" gradientUnits="userSpaceOnUse">
<stop stop-color="#0A2E8F"/>
<stop offset="0.347916" stop-color="#0F498D"/>
<stop offset="0.519791" stop-color="#166F8A"/>
<stop offset="1" stop-color="#1A8589"/>
</linearGradient>
</defs>
</svg>
