<svg width="158" height="302" viewBox="0 0 158 302" fill="none" xmlns="http://www.w3.org/2000/svg">
<mask id="mask0_225_1651" style="mask-type:alpha" maskUnits="userSpaceOnUse" x="0" y="0" width="158" height="302">
<path d="M106.827 246.756C109.013 238.148 108.432 229.382 101.422 220.448C97.9361 216.012 94.0273 212.105 89.1143 208.207V164.057C94.9332 163.519 98.645 158.378 98.645 150.687C98.645 150.67 98.645 150.661 98.645 150.643C98.645 150.643 98.645 150.643 98.645 150.634C98.6352 147.839 98.6352 143.156 98.1823 137.688V137.661C98.0543 134.892 97.9164 132.228 97.8081 130.165C98.3595 130.015 98.901 129.865 99.4425 129.697C105.823 127.784 112.075 124.961 117.332 120.843C118.652 119.828 119.873 118.7 121.044 117.527C122.167 116.38 123.338 114.996 124.215 113.805C126.292 111.018 127.414 107.905 128.084 104.827C129.334 98.6269 128.98 92.5063 128.369 86.5356C127.73 80.5561 126.706 74.6913 125.632 68.8882C124.539 63.0939 123.407 57.379 122.285 51.717C121.153 46.0638 120.01 40.4636 118.642 34.9603C117.234 29.4747 115.698 24.0421 113.02 18.9357C111.671 16.3957 109.987 13.9528 107.762 11.8714C106.502 10.7337 105.173 9.94881 103.834 9.2609C102.495 8.58182 101.146 7.97328 99.7871 7.45295C94.3719 5.33631 88.9371 3.95168 83.64 2.80517C78.3331 1.68512 73.1444 0.864926 68.0935 0.397503C65.5632 0.168201 63.0722 0.0182729 60.6107 0.000634344C58.1296 -0.00818496 55.7666 0.0711888 53.2559 0.476877C50.8929 0.873745 48.6185 1.60575 46.5805 2.42594C44.5227 3.25496 42.6224 4.19862 40.8502 5.18638C33.7809 9.18153 28.5134 13.6706 24.5653 17.6745C20.6171 21.6873 18.0769 25.312 16.6788 27.9931C15.9699 29.3248 15.5564 30.4272 15.2708 31.2298C15.0542 31.9353 14.9459 32.2969 14.9459 32.2969L14.9361 32.3322L14.6899 33.4963C14.6013 33.8756 14.5225 34.343 14.4438 34.8986C14.365 35.4542 14.2666 36.098 14.2173 36.8212C13.9909 39.3612 13.9416 42.9065 14.2075 47.2897L21.838 42.6331L14.5127 51.4524C14.6309 52.8812 14.7785 54.3805 14.9459 55.9503L22.9013 51.2672L15.4382 60.2188C15.6056 61.577 15.7828 62.9881 15.9699 64.4256L23.9745 59.9013L16.5409 68.7559C16.728 70.0876 16.9151 71.437 17.112 72.8304L25.028 68.5531L17.7224 77.196C17.9095 78.5013 18.0966 79.833 18.2935 81.1823L26.0914 77.1872L18.9532 85.5743C19.1501 86.8619 19.3568 88.176 19.5636 89.4989L27.1645 85.8213L20.2823 93.8468C20.4989 95.1345 20.7352 96.4309 20.9814 97.7361L28.2279 94.4554L21.8084 101.89C22.0841 103.204 22.3795 104.527 22.6946 105.859L29.3011 103.089L23.6496 109.572C23.9844 110.771 24.3388 111.979 24.7326 113.196C25.5301 115.639 26.4655 118.1 27.7356 120.552C28.3854 121.769 29.1042 122.986 30.0001 124.168C30.2364 124.459 30.4235 124.741 30.709 125.05C30.9749 125.332 31.2702 125.693 31.5065 125.914L31.8807 126.275L32.0678 126.452L32.3631 126.716C32.6979 126.999 33.0425 127.246 33.3871 127.475C36.203 129.265 39.206 130.103 42.2089 130.844C43.351 131.108 44.4931 131.338 45.6451 131.558C46.0291 132.996 46.7085 135.483 47.4764 138.261C45.6156 140.413 44.4833 143.2 44.4735 146.26C44.4538 149.514 45.7042 152.583 47.9687 154.912C49.8985 156.896 52.3796 158.122 55.0675 158.51C55.5401 159.136 56.062 159.745 56.6429 160.309C56.19 163.193 54.4472 166.262 52.6061 169.499C49.1502 175.575 44.8476 183.142 50.5778 190.568C54.5752 195.736 61.359 199.282 67.9163 202.712C67.9951 202.748 68.064 202.792 68.1329 202.827V245.16V260.867L64.037 245.583C27.5781 247.673 0 257.498 0 269.316V277.826C0 291.179 35.1987 302 78.6088 302C122.029 302 157.218 291.179 157.218 277.826V269.316C157.227 259.024 136.305 250.24 106.827 246.756ZM101.392 223.685C103.844 227.195 105.252 231.049 105.882 235.132C105.242 233.571 104.73 231.975 104.031 230.423C103.085 228.324 101.904 226.339 100.644 224.39C98.5761 221.162 95.8291 218.296 93.8206 215.042C96.5183 217.793 99.2161 220.571 101.392 223.685ZM95.3959 224.24C101.077 231.481 101.51 238.598 99.4819 246.015C96.1147 245.733 92.6489 245.512 89.1143 245.371V217.352C91.4182 219.531 93.4661 221.78 95.3959 224.24ZM94.175 152.213C93.732 154.321 93.0132 156.173 91.9794 158.104C92.5899 156.226 92.9443 154.471 93.0723 152.522C93.1117 150.229 92.7966 147.892 92.2846 145.643C91.5561 142.415 90.729 139.205 89.8823 136.003L77.2403 136.153C76.7775 139.963 76.3148 143.773 75.6157 147.556C75.1234 150.246 74.3259 152.857 73.0952 155.353C72.2091 157.39 70.5648 159.136 69.0978 160.847C70.1316 159.171 71.2048 157.496 71.8645 155.653C72.79 153.086 73.0263 150.467 73.1936 147.795C73.3019 143.932 73.0952 140.06 72.8983 136.206H72.8786C72.7112 133.057 72.5241 130.006 72.4158 128.286H93.4957C93.5646 129.644 93.6729 131.655 93.791 133.948C94.0963 137.608 94.3916 141.277 94.5393 144.946C94.6378 147.336 94.6673 149.858 94.175 152.213ZM82.5078 267.243C82.4684 268.451 80.3909 268.416 80.4008 267.217C80.4894 252.585 80.578 237.963 80.6666 223.332C80.8044 199.511 80.9324 175.69 80.9324 151.878C80.9324 147.742 80.9324 143.614 80.9324 139.478C82.429 149.982 82.9114 160.618 83.0296 171.192C83.1674 183.416 83.1773 195.63 83.256 207.854C83.325 219.892 83.2068 231.948 83.0099 243.978C82.9213 249.278 82.8031 254.579 82.6948 259.879C82.6554 262.031 82.5865 264.192 82.5275 266.344C82.5275 266.617 82.557 266.952 82.5078 267.243ZM123.791 82.858C121.645 82.8227 119.498 82.8227 117.352 82.9285C114.595 83.0961 111.868 83.3871 109.121 83.687C109.131 80.9795 109.042 78.2719 108.865 75.5556C111.129 75.9877 113.384 76.4375 115.619 76.9755C118.218 77.6017 120.739 78.4219 123.269 79.2421C123.456 80.4503 123.634 81.6586 123.791 82.858ZM122.541 74.7089C120.335 74.6296 118.13 74.5767 115.915 74.6472C113.542 74.7442 111.189 74.9118 108.826 75.1058C108.648 72.4865 108.402 69.8671 108.107 67.2566C112.793 68.3679 117.372 69.6378 121.92 71.2077C122.137 72.3718 122.344 73.536 122.541 74.7089ZM121.074 66.5952C116.712 66.41 112.4 66.4364 108.038 66.6216C107.743 64.0376 107.398 61.4624 107.043 58.8871C111.573 60.113 116.013 61.4888 120.414 63.1116C120.641 64.2669 120.857 65.431 121.074 66.5952ZM118.809 54.9802C118.819 54.9537 118.829 54.9272 118.839 54.9008C119.065 56.0826 119.301 57.2555 119.528 58.4462C115.334 58.1904 111.159 58.111 106.945 58.1639C106.581 55.6063 106.207 53.0487 105.842 50.5C110.224 51.8405 114.536 53.3045 118.809 54.9802ZM117.194 46.6988C117.441 47.8894 117.677 49.0801 117.913 50.2795C113.847 49.9532 109.79 49.7768 105.714 49.7062C105.34 47.1574 104.927 44.5998 104.444 42.0599C108.737 43.5327 112.961 45.0937 117.145 46.8399C117.165 46.787 117.185 46.7429 117.194 46.6988ZM116.23 42.0952C112.262 41.7071 108.294 41.4337 104.297 41.2485C103.794 38.6292 103.213 36.0098 102.544 33.4258C106.906 35.075 111.208 36.8036 115.462 38.6821C115.727 39.811 115.983 40.9487 116.23 42.0952ZM113.296 30.2949C113.65 31.4767 113.975 32.6761 114.29 33.8844C110.322 33.417 106.354 33.0642 102.367 32.7643C101.618 29.9422 100.752 27.1376 99.7379 24.3772C104.306 26.2733 108.826 28.2224 113.296 30.2949ZM44.4931 10.7337C46.098 10.2046 47.8801 9.70187 49.5834 10.1693C52.6258 10.9983 53.7974 14.5878 53.9254 17.1277C52.3107 15.4873 51.6215 12.524 49.3471 11.501C48.077 10.9278 46.4032 11.21 45.0642 11.4216C43.863 11.6157 42.6618 11.8361 41.4606 11.9949C41.4606 11.6862 44.2076 10.8307 44.4931 10.7337ZM46.5312 26.829C50.4006 24.3243 54.6245 22.5692 59.1634 21.3522C59.1634 21.3522 59.1634 21.3522 59.1634 21.3433C69.3242 20.5232 79.4457 22.2253 89.6164 22.1018C90.0201 24.9593 90.4041 27.8167 90.7782 30.6742C90.3352 30.4272 88.5235 29.7129 88.3365 29.6511C87.1058 29.219 85.8356 28.8486 84.5754 28.487C81.6906 27.6668 78.7565 27.0406 75.7929 26.5379C70.742 25.6913 65.4155 25.1886 60.2858 25.7971C59.9018 25.8412 59.5178 25.9117 59.1437 25.9735C55.1069 26.4409 51.1784 27.4022 47.5257 29.0691C43.2132 30.9123 39.206 33.0995 35.2578 35.4807C38.8121 32.3498 42.4846 29.4483 46.5312 26.829ZM56.9481 80.2739C60.3843 78.7305 63.8106 77.4429 67.4929 76.4993C67.4929 76.4728 67.4831 76.4552 67.4831 76.4287C72.7112 75.5997 78.0673 75.2469 83.3545 74.8677C86.0818 74.6737 88.8091 74.5061 91.5462 74.3297C92.7769 74.2503 93.9978 74.1798 95.2285 74.0916C95.3171 74.0828 96.538 73.9505 97.1288 73.8447C97.1485 73.9417 97.1583 74.0387 97.178 74.1445C97.6604 76.8785 98.1724 79.6125 98.6056 82.3553C88.8977 79.392 77.9787 79.3303 67.9655 80.9795C67.9064 80.9883 67.8572 81.0059 67.7981 81.0147C67.5422 81.0412 67.2862 81.0588 67.0302 81.0765C65.2875 81.2176 63.5251 81.5439 61.8316 81.9231C55.038 83.4753 48.7859 86.077 42.524 88.8286C47.1318 85.7243 51.7692 82.5846 56.9481 80.2739C57.7653 79.9035 56.1506 80.6267 56.9481 80.2739ZM95.5731 73.1744C94.3719 72.8481 93.1511 72.5041 91.9203 72.3013C89.2423 71.7809 86.5544 71.3753 83.8271 71.1548C78.6777 70.7491 73.4201 70.8196 68.3101 71.5164C67.5717 71.6134 66.8333 71.7457 66.1047 71.8868C65.8782 71.8956 65.6715 71.8956 65.5533 71.9044C63.85 72.072 62.186 72.3718 60.5221 72.7511C53.7285 74.2151 47.4666 77.0725 41.3031 79.93C45.8223 76.7374 50.4006 73.5536 55.5401 71.1812C55.3432 71.2694 55.166 71.3488 55.55 71.1812C55.6977 71.1107 55.7567 71.0842 55.7764 71.0754C55.7469 71.0842 55.6484 71.1283 55.5598 71.1812C58.8877 69.6378 62.2156 68.3679 65.7798 67.4154C65.7699 67.3713 65.7601 67.3272 65.7601 67.2919C68.7827 66.798 71.9137 66.6481 74.9363 66.4364C80.0562 66.0748 85.1957 65.8808 90.3352 65.6515C91.684 65.5898 93.0329 65.5457 94.3719 65.4487C94.5295 65.4399 95.2778 65.3781 95.6519 65.2547C96.1147 68.0239 96.5971 70.7932 97.0894 73.5624C96.5872 73.3596 95.7897 73.2361 95.5731 73.1744ZM95.5534 64.8931C93.1018 64.0729 90.5419 63.4996 87.982 63.0322C81.8284 61.8945 75.34 61.5682 69.0978 62.1326C67.6603 62.2649 66.272 62.4589 64.9035 62.7059C64.9035 62.6794 64.8936 62.6618 64.8936 62.6353C64.7656 62.6618 64.6081 62.6794 64.4014 62.6971C62.5306 62.8999 60.6993 63.2262 58.8877 63.6495C52.2319 65.1312 46.0783 68.0945 40.1019 71.0225C44.5128 67.7505 49.0124 64.5315 54.0731 62.0885C53.9254 62.1591 53.827 62.2032 54.142 62.0532C54.4965 61.8857 54.3882 61.9386 54.2208 62.018C57.4601 60.4746 60.6796 59.2134 64.1454 58.2698C64.1355 58.2169 64.1257 58.1728 64.1257 58.1198C67.0892 57.6348 70.1907 57.5289 73.1641 57.3878C78.471 57.1409 83.7877 57.0351 89.1044 56.894C90.4927 56.8587 91.8908 56.8234 93.2889 56.7528C93.6532 56.7352 94.0667 56.6735 94.2735 56.5765C94.687 59.3545 95.1399 62.1238 95.6027 64.8931C95.5633 64.9019 95.5633 64.9019 95.5534 64.8931ZM93.8206 56.109C91.3001 55.2536 88.6614 54.6362 86.0326 54.1335C79.9774 52.9694 73.6859 52.5725 67.5126 53.0135C66.1244 53.1105 64.7656 53.2957 63.4266 53.5426C63.4266 53.5162 63.4168 53.4985 63.4168 53.4721H63.4069C63.0229 53.4985 62.639 53.5603 62.2648 53.6044C60.5615 53.8866 58.8975 54.16 57.2139 54.5745C50.6862 56.0738 44.6802 59.1693 38.881 62.1326C43.2132 58.7725 47.6438 55.5005 52.6652 52.987C52.5175 53.0576 52.419 53.1105 52.7242 52.9517C53.0885 52.7665 52.9605 52.8371 52.7833 52.9253C56.0521 51.3202 59.3012 50.0237 62.826 49.0536C62.8162 49.0007 62.8162 48.9478 62.8063 48.8948C66.0358 48.348 69.5901 48.3921 72.8293 48.3128C78.5005 48.1805 84.1815 48.2775 89.8527 48.1452C90.5813 48.1364 91.3099 48.1276 92.0385 48.1011C92.3142 48.0923 92.7572 48.1187 93.0231 48.0041C93.3972 50.7557 93.7812 53.5073 94.1947 56.259C94.116 56.2237 93.9978 56.1708 93.8206 56.109ZM90.9456 46.9546C88.2282 46.1168 85.4418 45.4553 82.6259 44.9614C76.8169 43.9296 70.8307 43.471 64.9133 43.9384C64.0075 44.0089 63.1115 44.1324 62.2254 44.2823C62.2254 44.2471 62.2156 44.2118 62.2156 44.1765C61.7528 44.2823 61.2999 44.3529 61.1129 44.3794C59.3012 44.6351 57.5388 44.9879 55.7666 45.4377C49.288 47.0869 43.3806 50.1472 37.6602 53.2516C41.9037 49.8209 46.2555 46.496 51.2178 43.9119C51.0898 43.9737 51.0308 44.009 51.3064 43.8678C51.6412 43.7003 51.5624 43.7444 51.4147 43.8149C54.7426 42.1304 58.0607 40.7899 61.6938 39.8021C61.6938 39.7669 61.6839 39.7316 61.6839 39.6963C62.6882 39.5993 63.7121 39.6258 64.6869 39.467C67.5717 39.3083 70.4565 39.273 73.3512 39.2818C79.1011 39.2906 84.8511 39.5376 90.601 39.4582C90.8471 39.4582 91.7727 39.5023 91.8908 39.3347C92.2551 42.1481 92.6194 44.9614 92.9935 47.7748C92.5406 47.4573 91.113 46.9987 90.9456 46.9546ZM91.6151 39.0437C90.6207 38.5145 89.3998 38.197 88.3069 37.8884C85.5698 37.0858 82.8031 36.4244 79.9774 35.8952C74.4933 34.8722 68.6252 34.2901 63.0131 34.8192C62.3731 34.881 61.743 34.9603 61.1227 35.0574C61.1227 35.0309 61.1129 35.0133 61.1129 34.9868C60.6599 35.075 60.1972 35.1456 59.7935 35.1808C58.0902 35.2955 56.3376 35.7717 54.7131 36.2039C48.1459 37.9413 42.1991 41.0898 36.459 44.3705C40.6139 40.8605 44.9165 37.4738 49.8197 34.8192C49.6917 34.8898 49.6327 34.9163 49.8985 34.7751C51.8775 33.7345 53.8467 32.6761 55.9832 31.9177C57.4896 31.3885 58.996 30.9564 60.5418 30.5507C60.5418 30.5242 60.5319 30.4978 60.5319 30.4713C61.6544 30.3479 62.8162 30.3302 63.9189 30.2773C67.1188 30.1274 70.3482 30.1979 73.5481 30.3126C76.9153 30.436 80.2925 30.5683 83.6696 30.6653C85.1464 30.7094 86.6135 30.7447 88.0903 30.7712C88.494 30.78 90.3155 31.0269 90.7881 30.7976C91.1524 33.611 91.5167 36.4244 91.881 39.2377C91.8416 39.1848 91.7628 39.1231 91.6151 39.0437ZM27.6076 78.66C25.9141 66.7804 24.3979 54.8214 23.8662 42.8536C23.6988 39.0613 23.6496 35.2778 23.7481 31.4855C24.5554 41.8923 25.9929 52.2462 27.4402 62.6C29.0746 74.365 30.4924 86.174 32.432 97.9037C33.1311 102.093 33.9089 106.282 35.2479 110.357C30.4432 100.435 29.1239 89.2784 27.6076 78.66ZM40.3087 91.2275C38.9401 85.5038 37.8768 79.7095 37.0005 73.9152C35.2086 62.1855 33.712 50.3765 32.9539 38.5498C32.6782 34.2901 32.5404 30.0127 32.6979 25.7442C33.8105 35.7894 35.2086 45.7993 36.5771 55.8268C38.2115 67.6888 39.6884 79.5772 41.6969 91.3951C42.4551 95.8929 43.2624 100.408 44.6211 104.8C42.6421 100.435 41.4114 95.8224 40.3087 91.2275ZM53.8762 126.258C52.9901 126.434 52.0843 126.566 51.1883 126.69C58.8779 122.977 66.7742 116.345 68.832 109.095C70.4762 103.31 70.4959 97.1893 69.6787 90.1427C68.32 90.2662 66.9711 90.4338 65.6518 90.6542C65.8191 94.1908 66.0161 97.7185 65.8782 101.255C65.7896 103.583 65.4745 106.053 64.5983 108.258C63.9386 109.924 63.1509 111.441 62.255 113.011C62.8851 111.388 63.4365 109.827 63.8204 108.134C64.3226 105.903 64.2635 103.495 64.0075 101.237C63.6235 97.9037 62.9343 94.6141 62.255 91.3157C55.8552 92.7621 49.7902 95.1786 43.7252 97.692C47.4961 95.3108 51.2178 92.9032 55.2448 90.8659C59.6458 88.6258 64.2143 86.8355 69.0879 85.6184C69.0879 85.6008 69.0879 85.592 69.0781 85.5743C69.3636 85.5302 69.6393 85.4773 69.9248 85.4332C75.1923 84.6395 80.5091 84.0574 85.816 83.5812C90.0693 83.2019 94.3818 83.0256 98.6352 82.514C98.9502 84.4631 99.2259 86.4122 99.4228 88.37C99.6001 86.7826 99.6985 85.2039 99.7084 83.6076C99.797 71.9926 97.9755 60.2806 96.282 48.789C94.7559 38.3822 92.8951 27.8079 88.9469 17.8862C89.134 19.1826 89.3801 20.4702 89.5574 21.7667C89.5672 21.8372 89.577 21.9078 89.5869 21.9783C88.1691 21.3963 86.7119 20.8583 85.2449 20.3909C79.4162 18.5212 73.2429 17.0836 67.0597 16.6162C64.2734 16.4045 61.0735 16.1664 58.2182 16.6162C57.8244 14.8171 57.3911 13.1414 56.9185 11.6421C54.7328 4.70132 49.6327 6.38581 43.9122 7.42649C46.9546 5.83901 50.312 4.40147 54.0042 3.76648C55.2644 3.56363 56.6724 3.4578 58.1099 3.4137C62.5897 4.29563 65.7305 7.21482 66.912 11.2893C66.8037 8.19377 65.5238 5.52152 63.3774 3.47544C64.7952 3.54599 66.2228 3.63419 67.68 3.7753C68.1723 3.81939 68.6744 3.88995 69.1667 3.94286C73.1838 5.1952 75.5665 8.74938 76.748 12.4711C76.5314 9.77242 75.7732 7.14427 74.1093 4.85125C74.0305 4.74542 73.9419 4.64841 73.8632 4.55139C75.9997 4.86889 78.1756 5.24812 80.3614 5.67145C83.709 7.17955 85.9439 10.3369 86.9581 13.5735C86.8202 11.0865 86.0326 8.63473 84.6148 6.57101C86.643 7.03844 88.6811 7.54996 90.7093 8.13203C93.6434 9.86943 95.5042 13.2649 96.5577 16.1311C96.2919 13.8117 95.6322 11.3864 94.4212 9.26972C95.6913 9.69305 96.9515 10.1428 98.1921 10.6367C98.3201 10.6896 98.4383 10.7425 98.5663 10.7955C101.756 12.8504 103.922 16.2458 105.104 19.553C104.828 17.2953 104.159 15.0287 103.056 12.965C103.755 13.3883 104.405 13.8381 104.917 14.3144C106.748 16.0341 108.235 18.1684 109.446 20.4702C110.302 22.1018 111.031 23.8127 111.691 25.5766C107.674 25.0386 103.657 24.58 99.6099 24.1655C98.9305 22.3399 98.1921 20.532 97.3749 18.7505C97.6506 20.0293 97.9263 21.3169 98.1921 22.5957C100.545 34.0872 101.874 45.6846 103.607 57.2555C104.493 63.1645 105.508 69.0558 106.551 74.9471C107.388 79.6918 108.314 84.4366 108.806 89.2255C108.963 87.8144 109.072 86.4033 109.091 84.9746C109.101 84.6042 109.082 84.2426 109.082 83.8722C111.769 84.2955 114.438 84.7277 117.086 85.2921C119.518 85.8213 121.891 86.5092 124.254 87.2235C124.815 92.9208 125.061 98.7063 123.939 104.148C123.338 106.891 122.324 109.545 120.7 111.715C119.745 113.011 118.898 113.981 117.844 115.066C116.801 116.107 115.708 117.112 114.516 118.029C111.661 120.278 108.422 122.122 104.986 123.638C105.99 122.959 106.975 122.254 107.93 121.504C111.848 118.444 115.127 114.572 117.116 110.251C119.37 105.365 119.745 100.197 118.642 95.0463C118.839 99.844 117.933 104.412 115.481 108.716C113.335 112.482 109.948 115.763 106.187 118.303C103.351 120.217 100.319 121.733 97.1682 123.074C98.3103 122.245 99.4228 121.381 100.516 120.455C108.067 114.034 111.976 104.236 110.234 95.0551C110.283 97.0747 110.194 99.0943 109.712 101.07C107.388 110.559 99.925 118.373 90.2269 122.58C89.2521 123.003 88.2577 123.392 87.2731 123.771C88.3266 123.003 89.3506 122.183 90.3549 121.319C98.133 114.616 102.347 104.033 100.624 94.4818C100.654 96.572 100.516 98.6534 99.9939 100.691C98.8124 105.338 96.6266 110.083 93.2101 113.778C91.6939 115.419 90.1481 117.147 88.2774 118.47C86.4264 119.784 84.6049 120.957 82.5964 122.077C80.9817 122.986 79.239 123.735 77.4372 124.397C78.1559 123.85 78.8648 123.286 79.5343 122.695C84.0831 118.691 87.3913 113.611 89.3407 108.187C90.9751 103.654 91.9007 98.6622 91.0342 93.9174C91.3099 98.574 89.8626 103.301 87.7654 107.526C85.3335 112.429 81.6906 116.918 76.9547 120.234C74.4342 122.007 71.7365 123.347 68.891 124.37C69.5605 123.815 70.2202 123.25 70.8405 122.651C75.1923 118.435 78.2051 113.329 80.0266 107.834C81.5429 103.239 82.5078 98.1242 81.4346 93.3618C81.5724 97.0394 80.4992 100.682 79.1602 104.121C77.4864 108.381 75.1136 112.35 72.0318 115.922C69.019 119.405 65.1398 122.386 60.6501 124.229C58.484 125.102 56.2195 125.79 53.8762 126.258ZM55.5401 155.503C57.7751 154.876 59.8427 154.012 61.359 152.336C62.8654 150.802 63.7417 148.721 63.8204 146.692C63.8992 144.47 63.1706 142.247 61.615 140.501C60.02 138.711 57.9917 137.767 55.6091 137.079C61.9497 135.88 66.8333 141.021 67.0006 146.33C66.7939 149.073 65.8388 151.631 63.4955 153.518C61.3196 155.256 58.4053 156.067 55.5401 155.503ZM54.014 188.099C50.4499 183.178 53.0688 177.207 56.4558 172.859C54.2405 176.986 51.6707 182.252 54.3586 186.705C56.6921 191.071 61.6051 193.99 66.0062 196.539C61.2999 194.748 56.8201 191.988 54.014 188.099ZM56.6133 186.802C53.5414 182.825 55.5697 178.768 59.1535 172.489C60.7092 169.746 62.2943 166.941 63.2395 163.996C63.5054 164.066 63.8008 164.128 64.0764 164.198C64.1847 164.225 64.293 164.251 64.4014 164.278C64.8149 164.366 65.2481 164.445 65.6911 164.507C65.829 164.525 65.9471 164.551 66.085 164.569C66.656 164.648 67.2566 164.71 67.8769 164.754C67.9557 164.763 68.0344 164.763 68.1132 164.772V195.154C63.4463 192.641 59.0649 189.977 56.6133 186.802ZM117.49 289.979C104.444 292.466 90.9358 293.481 77.6144 293.26C68.0541 293.11 58.4545 292.502 49.0419 290.993C41.6182 289.794 34.4504 288.145 27.3024 286.002C51.4246 290.57 76.0489 291.434 100.585 289.591C109.594 288.912 118.701 287.722 127.464 285.728C135.458 283.912 143.158 281.636 150.267 277.826C140.765 284.405 129.108 287.757 117.49 289.979Z" fill="#414042"/>
</mask>
<g mask="url(#mask0_225_1651)">
<rect y="0.0195312" width="168.363" height="301.62" fill="url(#paint0_linear_225_1651)"/>
<rect y="0.0195312" width="168.363" height="301.62" fill="white" style="mix-blend-mode:soft-light"/>
</g>
<defs>
<linearGradient id="paint0_linear_225_1651" x1="11.5074" y1="150.506" x2="168.344" y2="150.506" gradientUnits="userSpaceOnUse">
<stop stop-color="#0A2E8F"/>
<stop offset="0.347916" stop-color="#0F498D"/>
<stop offset="0.519791" stop-color="#166F8A"/>
<stop offset="1" stop-color="#1A8589"/>
</linearGradient>
</defs>
</svg>
